<svg width="170" height="192" viewBox="0 0 170 192" fill="none" xmlns="http://www.w3.org/2000/svg">
<g opacity="0.2">
<path d="M162.432 137.43C159.479 143.238 156.102 146.703 152.441 148.519C146.809 151.327 140.488 150.248 133.945 147.826C133.742 147.756 133.556 147.686 133.353 147.616C132.469 147.274 131.576 146.914 130.674 146.528C120.409 142.194 109.809 135.667 100.649 136.544C96.4583 136.948 91.8874 138.667 86.9893 140.948C82.604 142.984 77.9447 145.475 73.0466 147.853C72.1713 148.274 71.296 148.695 70.4119 149.116C68.1486 150.169 65.841 151.186 63.4715 152.108C50.2185 157.284 35.4624 159.573 19.5923 149.941C8.523 143.212 -13.6951 105.014 11.7147 67.2719C39.9449 25.3191 115.334 25.9771 137.146 37.8997C175.756 59.0077 174.677 113.331 162.432 137.43Z" fill="#E5F6FF"/>
<path d="M131.912 14.2913C130.984 17.2566 130.754 20.4325 131.249 23.503C131.329 23.9943 131.435 24.5032 131.709 24.9243C132.248 25.7314 133.318 26.0385 134.29 26.0034C136.678 25.9244 138.844 24.1435 139.586 21.8888C140.329 19.6341 139.719 17.0548 138.251 15.1949C137.447 14.1685 136.315 13.3087 135.015 13.1684C133.716 13.0192 132.266 13.7825 131.947 15.0458C132.195 15.3792 132.823 15.2914 132.964 14.9054L131.921 14.3089L131.912 14.2913Z" fill="#E5F6FF"/>
<path d="M2.10446 149.458C1.17613 152.423 0.946255 155.599 1.44137 158.67C1.52094 159.161 1.62703 159.67 1.90111 160.091C2.44043 160.898 3.51022 161.205 4.48276 161.17C6.86991 161.091 9.03602 159.31 9.77869 157.056C10.5214 154.801 9.91131 152.222 8.44365 150.362C7.6391 149.335 6.50742 148.476 5.20775 148.335C3.90808 148.186 2.45811 148.949 2.13983 150.213C2.38738 150.546 3.01511 150.458 3.15657 150.072L2.1133 149.476L2.10446 149.458Z" fill="#E5F6FF"/>
<path d="M136.828 22.5292C135.776 23.2574 135.157 24.5558 135.254 25.8279C136.412 26.3631 137.844 26.4859 138.941 25.8279C140.037 25.1699 140.559 23.582 139.807 22.5555C139.056 21.5291 137.058 21.7923 136.819 23.0381V22.5292H136.828Z" fill="#E5F6FF"/>
<path d="M135.74 33.8641C135.148 33.8641 134.555 34.1536 134.202 34.6273C134.405 34.8028 134.609 34.9783 134.865 35.066C135.121 35.1537 135.431 35.1186 135.599 34.9081C135.829 34.6273 135.705 34.215 135.563 33.8816L135.846 33.9957L135.749 33.8641H135.74Z" fill="#E5F6FF"/>
<path d="M135.502 31.5392C135.493 31.3637 135.537 31.1795 135.634 31.0303C135.979 31.3374 135.988 31.8638 135.944 32.32C135.917 32.5744 135.838 32.8815 135.59 32.9516C135.413 32.9955 135.236 32.899 135.06 32.8815C134.697 32.8464 134.255 33.1096 134.025 32.8376C133.892 32.6797 133.946 32.434 134.078 32.2849C134.211 32.1357 134.414 32.0568 134.6 31.9866C135.015 31.8287 135.431 31.6708 135.846 31.5129L135.502 31.5479V31.5392Z" fill="#E5F6FF"/>
<path opacity="0.5" d="M135.935 61.4378C135.678 61.7098 136.085 62.1747 136.448 62.1045C136.819 62.0344 137.049 61.6834 137.243 61.3676C136.845 61.043 136.235 60.9991 135.793 61.2623L135.935 61.4378Z" fill="#E5F6FF"/>
<path d="M149.223 62.7889C149.356 62.6748 149.586 62.7362 149.683 62.8766C149.789 63.017 149.798 63.21 149.762 63.3767C149.745 63.4732 149.701 63.5785 149.639 63.6574C149.48 63.8329 149.161 63.8329 149.002 63.6574C148.843 63.482 148.87 63.1749 149.046 63.017C149.223 62.8591 149.524 62.8678 149.701 63.017L149.223 62.7889Z" fill="#E5F6FF"/>
<path d="M139.967 37.5049C139.852 37.154 139.277 37.075 139.074 37.3908C139.144 37.5751 139.25 37.7505 139.41 37.847C139.578 37.9523 139.816 37.9523 139.949 37.8119C140.082 37.6716 140.037 37.3908 139.852 37.3382L139.967 37.4961V37.5049Z" fill="#E5F6FF"/>
<path d="M136.394 29.9512C135.97 29.8109 135.475 29.8811 135.104 30.1267C135.333 30.4074 135.563 30.697 135.802 30.9777C135.908 31.1093 136.032 31.2497 136.191 31.3111C136.509 31.4251 136.881 31.1532 136.925 30.8198C136.969 30.4864 136.739 30.153 136.43 30.0127L136.394 29.9512Z" fill="#E5F6FF"/>
<path opacity="0.5" d="M146.367 58.5515C146.438 58.648 146.509 58.7532 146.58 58.8497C146.783 58.8147 146.96 58.6392 146.96 58.4374C146.96 58.2356 146.765 58.0426 146.562 58.0689C146.359 58.0953 146.217 58.3497 146.323 58.5251L146.359 58.5515H146.367Z" fill="#E5F6FF"/>
<path d="M138.375 35.3116C138.623 35.3116 138.702 34.9607 138.596 34.7413C138.49 34.522 138.269 34.3816 138.145 34.1799C138.013 33.9693 137.977 33.6973 138.048 33.4605C138.092 33.3201 138.189 33.1885 138.331 33.1534C138.428 33.1359 138.525 33.171 138.614 33.1973C139.065 33.364 139.507 33.6008 139.799 33.9781C140.09 34.3553 140.196 34.908 139.949 35.3116C139.772 35.5923 139.445 35.7766 139.109 35.759C138.773 35.7502 138.455 35.5397 138.304 35.2502L138.375 35.3028V35.3116Z" fill="#E5F6FF"/>
<path d="M132.062 33.8552C131.77 33.7763 131.452 34.0131 131.39 34.3027C131.328 34.5922 131.47 34.908 131.709 35.101C131.815 35.1887 131.974 35.2502 132.071 35.1624C132.142 35.101 132.151 35.0045 132.151 34.908C132.151 34.5395 132.16 34.1711 132.168 33.7938L132.071 33.8465L132.062 33.8552Z" fill="#E5F6FF"/>
<path d="M133.733 47.9098C134.335 47.7518 134.998 48.3221 134.918 48.9362C134.441 48.9976 133.937 49.0503 133.512 48.8397C133.088 48.6291 132.814 48.0414 133.097 47.6641C133.371 47.6027 133.645 47.5413 133.91 47.4886L133.733 47.9185V47.9098Z" fill="#E5F6FF"/>
<path d="M134.67 0.289498C134.635 0.157902 134.768 0.0175323 134.9 0.00875923C135.042 -0.00878692 135.174 0.0613977 135.289 0.140355C135.387 0.201767 135.475 0.280725 135.528 0.377228C135.634 0.570236 135.572 0.833428 135.395 0.982571C135.219 1.12294 134.962 1.14049 134.759 1.05276C134.662 1.00889 134.564 0.938705 134.529 0.833428C134.494 0.728151 134.529 0.596555 134.635 0.561463L134.67 0.298271V0.289498Z" fill="#E5F6FF"/>
<path d="M138.048 40.3123C137.942 40.3912 137.836 40.4614 137.73 40.5404C137.827 40.7158 137.933 40.9089 138.128 40.9703C138.313 41.0317 138.578 40.865 138.517 40.6807C138.49 40.6106 138.428 40.5579 138.375 40.5141C138.189 40.3649 138.004 40.2158 137.818 40.0579L138.057 40.3123H138.048Z" fill="#E5F6FF"/>
<path d="M139.383 47.0588C139.18 47.2956 138.959 47.5501 138.87 47.8484C138.773 48.1466 138.826 48.5239 139.082 48.7169C139.206 48.8134 139.374 48.8573 139.524 48.8485C140.002 48.8397 140.426 48.3747 140.382 47.901C140.338 47.4272 139.86 47.0412 139.383 47.1026V47.0588Z" fill="#E5F6FF"/>
<path d="M137.27 49.6556C137.243 49.8662 137.217 50.0855 137.19 50.296C137.34 50.3574 137.508 50.3838 137.676 50.375C137.836 50.0943 137.703 49.6995 137.42 49.5679L137.279 49.6644L137.27 49.6556Z" fill="#E5F6FF"/>
<path d="M121.639 36.2854C121.807 37.5137 122.258 38.7068 122.956 39.742C123.071 39.9087 123.195 40.0754 123.363 40.1807C123.699 40.3825 124.132 40.3123 124.486 40.1456C125.343 39.7245 125.821 38.7068 125.714 37.7681C125.6 36.8294 124.945 35.9872 124.096 35.5573C123.628 35.3204 123.071 35.1976 122.576 35.3555C122.081 35.5222 121.683 36.0398 121.78 36.5486C121.93 36.6276 122.143 36.496 122.125 36.3293L121.647 36.2854H121.639Z" fill="#E5F6FF"/>
<path d="M145.528 26.3981C145.05 26.7491 144.759 27.3369 144.759 27.9246C145.024 27.9422 145.298 27.9685 145.554 27.8808C145.811 27.8018 146.041 27.5825 146.049 27.3193C146.067 26.9596 145.713 26.7052 145.395 26.521C145.492 26.4946 145.59 26.4683 145.687 26.442L145.528 26.3981Z" fill="#E5F6FF"/>
<path d="M147.19 30.3373C147.11 30.4864 147.039 30.6444 147.066 30.811C147.092 30.969 147.225 31.083 147.34 31.1971C147.658 31.5041 147.941 31.8375 148.197 32.1972C148.259 31.469 148.321 30.7496 148.383 30.0215C148.383 29.9601 148.392 29.9074 148.419 29.8548C148.516 29.6793 148.781 29.7144 148.958 29.6179C149.214 29.4775 149.205 29.1003 149.117 28.8196C148.48 26.8105 147.596 29.5477 147.19 30.3461V30.3373Z" fill="#E5F6FF"/>
<path d="M143.689 22.8802C143.264 23.0206 142.911 23.3627 142.76 23.7838C143.114 23.8715 143.476 23.9593 143.83 24.047C143.998 24.0909 144.175 24.1347 144.343 24.0821C144.67 23.9856 144.803 23.5469 144.635 23.2574C144.467 22.9679 144.087 22.8363 143.751 22.9065L143.68 22.8802H143.689Z" fill="#E5F6FF"/>
<path d="M142.574 28.5827C142.292 28.6967 142.177 29.074 142.3 29.346C142.424 29.6179 142.734 29.7846 143.034 29.7934C143.167 29.7934 143.335 29.7583 143.361 29.6267C143.379 29.539 143.326 29.4512 143.273 29.381C143.052 29.0828 142.831 28.7845 142.619 28.4774L142.574 28.5827Z" fill="#E5F6FF"/>
<path d="M137.57 26.9597C137.358 27.1965 137.146 27.4509 137.058 27.7492C136.96 28.0475 137.013 28.4248 137.27 28.6178C137.394 28.7143 137.562 28.7581 137.712 28.7494C138.189 28.7406 138.614 28.2756 138.569 27.8019C138.534 27.3281 138.048 26.9421 137.57 27.0035V26.9597Z" fill="#E5F6FF"/>
<path d="M132.018 41.9791C132.151 42.2686 132.557 42.3037 132.876 42.2686C133.194 42.2335 133.583 42.2072 133.786 42.4616C133.839 42.5318 133.875 42.6196 133.848 42.7073C133.786 42.9266 133.468 42.874 133.247 42.9091C133.07 42.9354 132.911 43.0494 132.752 43.1196C132.354 43.2863 131.85 43.1723 131.567 42.8564C131.505 42.6371 131.594 42.3827 131.77 42.2423C131.956 42.102 132.221 42.0756 132.425 42.1897L132.027 41.9879L132.018 41.9791Z" fill="#E5F6FF"/>
<path d="M137.252 47.9887C137.385 48.2782 137.791 48.3133 138.11 48.2782C138.428 48.2431 138.817 48.2168 139.02 48.4712C139.073 48.5414 139.109 48.6291 139.082 48.7169C139.02 48.9362 138.702 48.8836 138.481 48.9187C138.304 48.945 138.145 49.059 137.986 49.1292C137.588 49.2959 137.084 49.1818 136.801 48.866C136.739 48.6467 136.828 48.3923 137.005 48.2519C137.19 48.1115 137.455 48.0852 137.659 48.1993L137.261 47.9975L137.252 47.9887Z" fill="#E5F6FF"/>
<path d="M136.412 53.8579C136.342 54.1123 136.333 54.3755 136.386 54.6299C136.386 54.6738 136.404 54.7177 136.43 54.744C136.474 54.8142 136.572 54.8317 136.651 54.8317C136.854 54.8229 137.031 54.665 137.084 54.472C137.137 54.279 137.084 54.0685 136.952 53.9105C136.881 53.8228 136.784 53.7614 136.678 53.7526C136.572 53.7439 136.448 53.814 136.421 53.9193C136.439 53.9456 136.492 53.9369 136.51 53.9018L136.421 53.8579H136.412Z" fill="#E5F6FF"/>
<path d="M137.615 16.0898C137.137 16.4408 136.846 17.0286 136.846 17.6164C137.111 17.6339 137.385 17.6602 137.641 17.5725C137.898 17.4935 138.128 17.2742 138.136 17.011C138.154 16.6513 137.801 16.3969 137.482 16.2127C137.579 16.1863 137.677 16.16 137.774 16.1337L137.615 16.0898Z" fill="#E5F6FF"/>
<path d="M143.194 16.4934C142.893 16.274 142.38 16.5548 142.407 16.932C142.575 17.0373 142.76 17.1162 142.955 17.0987C143.149 17.0812 143.344 16.9408 143.361 16.7478C143.388 16.5548 143.176 16.3618 142.999 16.4319L143.185 16.4934H143.194Z" fill="#E5F6FF"/>
<path d="M138.888 25.3805C138.587 25.1612 138.074 25.4419 138.101 25.8192C138.269 25.9244 138.454 26.0034 138.649 25.9858C138.843 25.9683 139.038 25.8279 139.056 25.6349C139.082 25.4419 138.87 25.2489 138.693 25.3191L138.879 25.3805H138.888Z" fill="#E5F6FF"/>
<path d="M140.603 15.6862C140.797 15.5371 140.656 15.2125 140.435 15.0984C140.214 14.9931 139.957 15.0019 139.728 14.9142C139.489 14.8265 139.303 14.6334 139.215 14.3966C139.171 14.2562 139.162 14.0895 139.259 13.9842C139.321 13.9141 139.418 13.879 139.515 13.8526C139.975 13.721 140.47 13.6421 140.93 13.7737C141.39 13.9053 141.805 14.2825 141.858 14.7563C141.894 15.0896 141.735 15.423 141.452 15.616C141.178 15.8003 140.797 15.8354 140.497 15.6862H140.585H140.603Z" fill="#E5F6FF"/>
<path d="M135.06 43.2249C135.254 43.0758 135.113 42.7512 134.892 42.6371C134.671 42.5318 134.414 42.5406 134.184 42.4529C133.954 42.3651 133.76 42.1721 133.671 41.9353C133.627 41.7949 133.618 41.6282 133.716 41.5229C133.778 41.4528 133.875 41.4177 133.972 41.3913C134.432 41.2597 134.927 41.1808 135.387 41.3124C135.846 41.444 136.262 41.8212 136.315 42.295C136.35 42.6283 136.191 42.9617 135.908 43.1547C135.625 43.3477 135.254 43.3741 134.953 43.2249H135.042H135.06Z" fill="#E5F6FF"/>
<path d="M131.912 43.0933C132.106 42.9442 131.965 42.6196 131.744 42.5055C131.523 42.4002 131.267 42.409 131.037 42.3213C130.807 42.2336 130.612 42.0406 130.524 41.8037C130.471 41.6633 130.471 41.4966 130.568 41.3913C130.63 41.3212 130.727 41.2861 130.824 41.2597C131.284 41.1282 131.779 41.0492 132.239 41.1808C132.699 41.3124 133.114 41.6896 133.167 42.1634C133.203 42.4968 133.044 42.8301 132.761 43.0231C132.487 43.2074 132.106 43.2425 131.806 43.0933H131.894H131.912Z" fill="#E5F6FF"/>
<path d="M133.114 38.4261C133.309 38.2769 133.168 37.9523 132.946 37.8383C132.725 37.733 132.469 37.7418 132.239 37.6541C132 37.5663 131.815 37.3733 131.726 37.1364C131.682 36.9961 131.673 36.8294 131.771 36.7241C131.832 36.6539 131.93 36.6188 132.027 36.5925C132.487 36.4609 132.982 36.382 133.442 36.5136C133.901 36.6451 134.317 37.0224 134.37 37.4961C134.405 37.8295 134.246 38.1629 133.963 38.3559C133.689 38.5401 133.309 38.5752 133.008 38.4261H133.097H133.114Z" fill="#E5F6FF"/>
<path d="M163.652 53.3315C163.847 53.1823 163.705 52.8577 163.484 52.7437C163.263 52.6384 163.007 52.6472 162.777 52.5594C162.547 52.4717 162.353 52.2787 162.264 52.0418C162.22 51.9015 162.211 51.7348 162.308 51.6295C162.37 51.5593 162.468 51.5242 162.565 51.4979C163.025 51.3663 163.52 51.2874 163.979 51.4189C164.439 51.5505 164.855 51.9278 164.908 52.4015C164.943 52.7349 164.784 53.0683 164.501 53.2613C164.227 53.4455 163.847 53.4806 163.546 53.3315H163.635H163.652Z" fill="#E5F6FF"/>
<path d="M143.361 19.8798C143.326 20.0026 143.282 20.1254 143.247 20.2482C143.432 20.336 143.636 20.4149 143.821 20.3535C144.016 20.2921 144.122 20.0026 143.954 19.8885C143.892 19.8447 143.812 19.8447 143.733 19.8359C143.494 19.8271 143.255 19.8183 143.008 19.8096L143.353 19.871L143.361 19.8798Z" fill="#E5F6FF"/>
<path d="M150.832 44.1548C150.62 44.3917 150.408 44.6461 150.32 44.9444C150.222 45.2427 150.275 45.6199 150.532 45.813C150.656 45.9095 150.824 45.9533 150.974 45.9446C151.451 45.9358 151.876 45.4708 151.831 44.9971C151.796 44.5233 151.31 44.1373 150.832 44.1987V44.1548Z" fill="#E5F6FF"/>
<path d="M134.184 23.4065C134.184 22.9503 134.821 22.652 135.174 22.9328C135.245 23.1697 135.263 23.4329 135.227 23.6785C134.953 23.7136 134.662 23.6434 134.432 23.4855L134.184 23.4065Z" fill="#E5F6FF"/>
<path opacity="0.5" d="M148.613 47.5413C148.525 47.6992 148.427 47.8659 148.41 48.0413C148.392 48.2256 148.463 48.4274 148.622 48.5063C148.896 48.6379 149.197 48.3835 149.497 48.3747C149.798 48.3747 150.098 48.6204 150.381 48.5151C150.664 48.4098 150.708 47.9975 150.532 47.7606C150.355 47.5237 150.054 47.4184 149.762 47.3395C149.506 47.2693 149.232 47.2254 148.976 47.2956C148.719 47.3746 148.498 47.6202 148.542 47.8834L148.613 47.5325V47.5413Z" fill="#E5F6FF"/>
<path d="M136.456 36.5398C135.174 36.5047 133.892 37.1715 133.203 38.2418C133.813 39.356 134.883 40.3123 136.147 40.4351C137.42 40.5579 138.799 39.6016 138.817 38.3295C138.835 37.0574 137.075 36.0836 136.138 36.9434L136.447 36.5398H136.456Z" fill="#E5F6FF"/>
<path d="M131.249 23.1346C131.426 23.1346 131.567 23.31 131.567 23.4767C131.567 23.6522 131.461 23.8101 131.328 23.9242C131.249 23.9943 131.16 24.047 131.063 24.0733C130.833 24.1172 130.577 23.9242 130.559 23.6961C130.542 23.4592 130.745 23.2311 130.975 23.2135C131.213 23.196 131.452 23.3715 131.496 23.6083L131.249 23.1434V23.1346Z" fill="#E5F6FF"/>
<path d="M133.848 29.6267C134.078 29.8548 134.458 29.7495 134.759 29.6179C135.051 29.4863 135.404 29.3284 135.678 29.5038C135.749 29.5477 135.82 29.6267 135.82 29.7144C135.829 29.9425 135.519 29.9951 135.316 30.1004C135.157 30.1881 135.051 30.3461 134.918 30.4601C134.6 30.7496 134.087 30.8023 133.707 30.6005C133.574 30.4075 133.574 30.1443 133.698 29.9513C133.822 29.7583 134.069 29.6442 134.299 29.6881L133.857 29.6267H133.848Z" fill="#E5F6FF"/>
<path d="M140.957 37.0224C140.957 37.1452 140.957 37.268 140.948 37.3908C141.134 37.4873 141.381 37.4435 141.505 37.2855C141.629 37.1276 141.584 36.8557 141.408 36.7592C141.231 36.6539 140.966 36.7855 140.939 36.9873V37.0311L140.957 37.0224Z" fill="#E5F6FF"/>
<path d="M138.074 30.5829C138.127 30.4513 138.313 30.425 138.437 30.4952C138.561 30.5654 138.622 30.697 138.676 30.8286C138.711 30.9339 138.737 31.0479 138.729 31.162C138.702 31.3813 138.481 31.5567 138.26 31.5655C138.039 31.5743 137.818 31.4339 137.703 31.2409C137.65 31.1444 137.615 31.0304 137.65 30.9251C137.685 30.8198 137.791 30.7409 137.898 30.7672L138.083 30.5829H138.074Z" fill="#E5F6FF"/>
<path d="M148.578 28.4423C147.632 27.5826 146.226 27.258 144.997 27.6177C144.723 28.8547 144.9 30.2671 145.784 31.1883C146.668 32.1095 148.348 32.2762 149.197 31.3287C150.045 30.3812 149.365 28.495 148.083 28.5388L148.587 28.4336L148.578 28.4423Z" fill="#E5F6FF"/>
<path d="M141.814 21.0641C141.558 21.3361 141.965 21.8011 142.327 21.7309C142.698 21.6607 142.928 21.3098 143.123 20.9939C142.725 20.6693 142.115 20.6255 141.673 20.8887L141.814 21.0641Z" fill="#E5F6FF"/>
<path d="M129.56 26.9421C129.56 27.0649 129.56 27.1877 129.551 27.3106C129.737 27.4071 129.985 27.3632 130.108 27.2053C130.232 27.0474 130.188 26.7754 130.011 26.6789C129.834 26.5824 129.569 26.7052 129.542 26.907V26.9509L129.56 26.9421Z" fill="#E5F6FF"/>
<path d="M136.236 28.2317C135.794 29.5038 135.652 30.8812 135.829 32.2147C135.855 32.434 135.9 32.6534 136.015 32.8376C136.236 33.1973 136.695 33.3377 137.12 33.3377C138.154 33.3377 139.118 32.5832 139.463 31.6181C139.816 30.6531 139.586 29.5214 138.968 28.6967C138.632 28.2405 138.154 27.8545 137.588 27.7755C137.022 27.6966 136.386 28.0036 136.236 28.5476C136.342 28.6967 136.607 28.6616 136.678 28.4949L136.236 28.2229V28.2317Z" fill="#E5F6FF"/>
<path d="M156.968 36.61C155.916 37.3382 155.297 38.6366 155.394 39.9087C156.552 40.4439 157.985 40.5667 159.081 39.9087C160.177 39.2507 160.699 37.6628 159.948 36.6363C159.196 35.6099 157.198 35.8731 156.959 37.1189V36.61H156.968Z" fill="#E5F6FF"/>
<path d="M14.4202 153.66C13.3681 154.389 12.7492 155.687 12.8465 156.959C14.0047 157.494 15.437 157.617 16.5333 156.959C17.6296 156.301 18.1512 154.713 17.3997 153.687C16.6482 152.66 14.6501 152.923 14.4114 154.169V153.66H14.4202Z" fill="#E5F6FF"/>
<path d="M138.428 52.0507C137.95 52.4016 137.659 52.9894 137.659 53.5772C137.924 53.5947 138.198 53.621 138.454 53.5333C138.711 53.4544 138.941 53.235 138.95 52.9718C138.967 52.6121 138.614 52.3577 138.295 52.1735C138.393 52.1472 138.49 52.1208 138.587 52.0945L138.428 52.0507Z" fill="#E5F6FF"/>
<path d="M140.099 55.9898C140.02 56.1389 139.949 56.2968 139.975 56.4635C140.002 56.6214 140.135 56.7355 140.249 56.8495C140.568 57.1566 140.851 57.49 141.107 57.8497C141.169 57.1215 141.231 56.4021 141.293 55.6739C141.293 55.6125 141.302 55.5599 141.328 55.5072C141.425 55.3318 141.691 55.3669 141.867 55.2704C142.124 55.13 142.115 54.7528 142.027 54.472C141.39 52.463 140.506 55.2002 140.099 55.9985V55.9898Z" fill="#E5F6FF"/>
<path d="M133.397 31.004C133.371 31.2146 133.344 31.4251 133.309 31.6357C133.742 31.662 134.22 31.469 134.361 31.0654C134.511 30.6619 134.122 30.1355 133.716 30.2495C133.459 30.3197 133.088 30.539 133.017 30.2846L133.388 30.9952L133.397 31.004Z" fill="#E5F6FF"/>
<path d="M143.158 46.6113C143.149 46.4359 143.194 46.2516 143.291 46.1025C143.636 46.4095 143.645 46.9359 143.6 47.3921C143.574 47.6465 143.494 47.9536 143.247 48.0238C143.07 48.0676 142.893 47.9711 142.716 47.9536C142.354 47.9185 141.912 48.1817 141.682 47.9097C141.549 47.7518 141.602 47.5062 141.735 47.357C141.867 47.2079 142.071 47.1289 142.256 47.0587C142.672 46.9008 143.088 46.7429 143.503 46.585L143.158 46.6201V46.6113Z" fill="#E5F6FF"/>
<path d="M150.187 46.471C149.93 46.743 150.337 47.2079 150.7 47.1377C151.071 47.0676 151.301 46.7166 151.495 46.4008C151.097 46.0762 150.487 46.0323 150.045 46.2955L150.187 46.471Z" fill="#E5F6FF"/>
<path opacity="0.5" d="M146.199 53.3403C146.332 53.2262 146.562 53.2876 146.659 53.428C146.765 53.5684 146.774 53.7614 146.739 53.9281C146.721 54.0246 146.677 54.1299 146.615 54.2088C146.456 54.3843 146.138 54.3843 145.978 54.2088C145.819 54.0334 145.846 53.7263 146.023 53.5684C146.199 53.4105 146.5 53.4192 146.677 53.5684L146.199 53.3403Z" fill="#E5F6FF"/>
<path d="M144.007 52.4542C143.706 52.2348 143.194 52.5156 143.22 52.8928C143.388 52.9981 143.574 53.0771 143.768 53.0595C143.963 53.042 144.157 52.9016 144.175 52.7086C144.201 52.5156 143.989 52.3226 143.812 52.3928L143.998 52.4542H144.007Z" fill="#E5F6FF"/>
<path d="M136.598 48.5327C136.174 48.673 135.82 49.0152 135.67 49.4363C136.023 49.524 136.386 49.6117 136.739 49.6995C136.907 49.7433 137.084 49.7872 137.252 49.7346C137.579 49.6381 137.712 49.1994 137.544 48.9099C137.376 48.6204 136.996 48.4888 136.66 48.559L136.589 48.5327H136.598Z" fill="#E5F6FF"/>
<path opacity="0.5" d="M150.894 51.0242C151.098 50.8663 151.407 50.8487 151.628 50.9803C151.849 51.1119 151.99 51.3751 151.955 51.6295C151.937 51.805 151.787 51.998 151.61 51.9453C151.54 51.9278 151.487 51.8664 151.433 51.8138C151.212 51.5681 151 51.3312 150.779 51.0856C150.823 51.0505 150.876 51.0242 150.921 50.9891L150.885 51.0242H150.894Z" fill="#E5F6FF"/>
<path opacity="0.5" d="M155.447 53.3491C155.58 53.6386 155.987 53.6737 156.305 53.6386C156.623 53.6035 157.012 53.5772 157.216 53.8316C157.269 53.9018 157.304 53.9895 157.278 54.0772C157.216 54.2966 156.897 54.2439 156.676 54.279C156.5 54.3053 156.34 54.4194 156.181 54.4896C155.783 54.6562 155.279 54.5422 154.996 54.2264C154.935 54.007 155.023 53.7526 155.2 53.6123C155.386 53.4719 155.651 53.4456 155.854 53.5596L155.456 53.3578L155.447 53.3491Z" fill="#E5F6FF"/>
<path opacity="0.5" d="M128.871 40.9439C129.003 41.2334 129.41 41.2685 129.728 41.2334C130.046 41.1983 130.435 41.172 130.639 41.4264C130.692 41.4966 130.727 41.5843 130.701 41.6721C130.639 41.8914 130.321 41.8388 130.099 41.8739C129.923 41.9002 129.764 42.0142 129.604 42.0844C129.207 42.2511 128.703 42.137 128.42 41.8212C128.358 41.6019 128.446 41.3475 128.623 41.2071C128.809 41.0667 129.074 41.0404 129.277 41.1545L128.879 40.9527L128.871 40.9439Z" fill="#E5F6FF"/>
<path opacity="0.5" d="M153.909 56.174C153.865 56.288 153.821 56.4021 153.777 56.5161C153.918 56.6653 154.166 56.7091 154.334 56.5951C154.502 56.481 154.555 56.2178 154.422 56.0599C154.289 55.902 153.998 55.9371 153.909 56.1213V56.1652V56.174Z" fill="#E5F6FF"/>
<path d="M141.416 51.647C141.611 51.4979 141.469 51.1733 141.248 51.0592C141.027 50.954 140.771 50.9627 140.541 50.875C140.302 50.7873 140.117 50.5943 140.028 50.3574C139.984 50.217 139.975 50.0503 140.073 49.9451C140.134 49.8749 140.232 49.8398 140.329 49.8135C140.789 49.6819 141.284 49.6029 141.744 49.7345C142.203 49.8661 142.619 50.2433 142.672 50.7171C142.707 51.0505 142.548 51.3838 142.265 51.5768C141.991 51.7611 141.611 51.7962 141.31 51.647H141.399H141.416Z" fill="#E5F6FF"/>
<path d="M135.475 54.2352C135.192 54.3492 135.077 54.7265 135.201 54.9984C135.325 55.2704 135.634 55.4371 135.935 55.4458C136.067 55.4458 136.235 55.4107 136.262 55.2792C136.28 55.1914 136.227 55.1037 136.173 55.0335C135.952 54.7352 135.731 54.4369 135.519 54.1299L135.475 54.2352Z" fill="#E5F6FF"/>
<path d="M147.075 42.2511C147.667 42.0932 148.339 42.6635 148.259 43.2776C147.782 43.339 147.278 43.3916 146.854 43.1811C146.429 42.9705 146.155 42.3827 146.438 42.0055C146.712 41.9441 146.986 41.8827 147.26 41.83L147.083 42.2599L147.075 42.2511Z" fill="#E5F6FF"/>
<path opacity="0.5" d="M144.175 55.8406C144.14 55.9635 144.095 56.0863 144.06 56.2091C144.246 56.2968 144.449 56.3758 144.635 56.3144C144.829 56.253 144.935 55.9635 144.767 55.8494C144.705 55.8055 144.626 55.8055 144.546 55.7968C144.308 55.788 144.069 55.7792 143.821 55.7704L144.166 55.8319L144.175 55.8406Z" fill="#E5F6FF"/>
<path d="M137.067 22.5731C136.854 22.81 136.642 23.0644 136.554 23.3627C136.457 23.661 136.51 24.0382 136.766 24.2312C136.89 24.3277 137.058 24.3716 137.208 24.3628C137.686 24.3541 138.11 23.8891 138.066 23.4153C138.021 22.9416 137.544 22.5556 137.067 22.617V22.5731Z" fill="#E5F6FF"/>
<path d="M151.522 34.6887C151.496 34.8992 151.469 35.1186 151.443 35.3291C151.593 35.3905 151.761 35.4168 151.929 35.4081C152.088 35.1273 151.955 34.7325 151.672 34.601L151.531 34.6975L151.522 34.6887Z" fill="#E5F6FF"/>
<path d="M138.18 5.93061C138.313 5.81656 138.543 5.87797 138.64 6.01834C138.746 6.15871 138.755 6.35172 138.72 6.51841C138.702 6.61491 138.658 6.72019 138.596 6.79915C138.437 6.97461 138.119 6.97461 137.959 6.79915C137.8 6.62368 137.827 6.31663 138.004 6.15871C138.18 6.0008 138.481 6.00957 138.658 6.15871L138.18 5.93061Z" fill="#E5F6FF"/>
<path d="M147.791 38.5138C147.764 38.7243 147.738 38.9436 147.711 39.1542C147.862 39.2156 148.03 39.2419 148.198 39.2331C148.357 38.9524 148.224 38.5576 147.941 38.426L147.8 38.5225L147.791 38.5138Z" fill="#E5F6FF"/>
<path d="M130.082 36.8907C129.852 36.9785 129.888 37.3294 130.064 37.4961C130.241 37.6628 130.489 37.7242 130.683 37.8733C130.878 38.0225 131.01 38.2681 131.019 38.5138C131.019 38.6541 130.984 38.8208 130.86 38.8998C130.781 38.9524 130.674 38.9524 130.577 38.9524C130.1 38.9436 129.605 38.8735 129.198 38.619C128.791 38.3646 128.508 37.8821 128.606 37.4084C128.676 37.0838 128.924 36.803 129.242 36.7065C129.56 36.61 129.932 36.689 130.17 36.9171L130.082 36.8907Z" fill="#E5F6FF"/>
<path d="M139.489 28.1001C139.622 27.9773 139.763 27.8457 139.834 27.679C139.904 27.5123 139.896 27.293 139.763 27.1702C139.542 26.9684 139.179 27.1263 138.888 27.0386C138.596 26.9509 138.393 26.6263 138.092 26.6438C137.791 26.6614 137.632 27.0386 137.729 27.3193C137.827 27.6001 138.083 27.7931 138.34 27.9422C138.569 28.0826 138.817 28.2142 139.082 28.2142C139.347 28.2142 139.63 28.0387 139.666 27.7755L139.489 28.0914V28.1001Z" fill="#E5F6FF"/>
<path d="M137.747 41.8827C137.774 40.786 137.544 39.6894 137.075 38.6893C136.996 38.5313 136.916 38.3647 136.784 38.2506C136.518 38.0313 136.129 38.0313 135.802 38.1278C134.998 38.3822 134.441 39.1981 134.405 40.0315C134.37 40.865 134.83 41.6897 135.51 42.1809C135.882 42.4529 136.35 42.6371 136.81 42.5582C137.27 42.4792 137.685 42.0844 137.668 41.6282C137.553 41.5405 137.349 41.6282 137.341 41.7774L137.756 41.8827H137.747Z" fill="#E5F6FF"/>
<path d="M130.197 39.2069C130.029 39.2069 129.852 39.2332 129.719 39.3385C129.595 39.4437 129.551 39.6104 129.516 39.7684C129.41 40.1895 129.259 40.6018 129.074 41.0054C129.737 40.6983 130.4 40.3912 131.072 40.0754C131.125 40.0491 131.178 40.0228 131.24 40.0228C131.443 40.0228 131.549 40.2684 131.717 40.3737C131.974 40.5228 132.292 40.3298 132.495 40.1105C133.937 38.5664 131.107 39.163 130.197 39.2156V39.2069Z" fill="#E5F6FF"/>
<path d="M137.491 41.9616C137.438 42.0756 137.385 42.1897 137.332 42.295C137.464 42.4529 137.703 42.5143 137.88 42.4178C138.057 42.3213 138.127 42.0581 138.004 41.8914C137.88 41.7247 137.588 41.7335 137.491 41.9177V41.9616Z" fill="#E5F6FF"/>
<path d="M131.541 42.409C131.302 42.2248 130.922 42.3125 130.736 42.5582C130.559 42.8038 130.568 43.146 130.71 43.4179C130.772 43.532 130.895 43.6548 131.019 43.6109C131.108 43.5846 131.152 43.4881 131.187 43.4091C131.337 43.0758 131.497 42.7336 131.647 42.4002L131.532 42.4178L131.541 42.409Z" fill="#E5F6FF"/>
<path d="M135.502 43.0319C134.953 42.795 134.299 42.8389 133.786 43.1284C133.901 43.3653 134.016 43.6109 134.22 43.7952C134.414 43.9706 134.724 44.0671 134.962 43.9443C135.289 43.7776 135.334 43.3477 135.342 42.988L135.555 43.1986L135.519 43.0319H135.502Z" fill="#E5F6FF"/>
<path d="M137.615 44.6988C137.765 44.6023 137.951 44.5496 138.127 44.5584C138.03 45.0058 137.57 45.2778 137.146 45.462C136.907 45.5673 136.598 45.655 136.421 45.4708C136.297 45.348 136.288 45.1462 136.218 44.9795C136.067 44.6549 135.616 44.4005 135.74 44.0671C135.811 43.8741 136.05 43.7951 136.253 43.839C136.456 43.8829 136.616 44.0145 136.775 44.1373C137.119 44.418 137.464 44.6988 137.809 44.9707L137.606 44.69L137.615 44.6988Z" fill="#E5F6FF"/>
<path d="M132.672 40.0052C132.336 39.7069 131.859 39.5753 131.417 39.663C131.514 40.014 131.62 40.3649 131.718 40.7158C131.762 40.8825 131.815 41.058 131.939 41.172C132.186 41.4089 132.637 41.3036 132.805 41.0141C132.982 40.7246 132.902 40.3298 132.672 40.0754V40.0052Z" fill="#E5F6FF"/>
<path d="M132.354 45.7077C132.584 45.7954 132.796 45.5147 132.787 45.2778C132.778 45.041 132.637 44.8216 132.593 44.5848C132.557 44.3391 132.628 44.0759 132.787 43.8917C132.884 43.7776 133.026 43.6899 133.167 43.725C133.265 43.7425 133.344 43.8127 133.406 43.8829C133.751 44.2163 134.06 44.6023 134.184 45.0673C134.299 45.5322 134.184 46.0762 133.786 46.3481C133.512 46.5411 133.132 46.5675 132.831 46.4271C132.531 46.2867 132.319 45.9709 132.301 45.6463L132.345 45.7253L132.354 45.7077Z" fill="#E5F6FF"/>
<path d="M142.327 33.6623C142.018 33.6009 141.69 33.5395 141.381 33.6096C141.072 33.6798 140.771 33.9079 140.727 34.2237C140.709 34.3817 140.753 34.5396 140.833 34.6712C141.08 35.0747 141.69 35.2063 142.088 34.9431C142.486 34.6712 142.583 34.0658 142.292 33.6886L142.327 33.6623Z" fill="#E5F6FF"/>
<path d="M135.59 31.3988C135.042 31.1619 134.387 31.2058 133.875 31.4953C133.99 31.7322 134.105 31.9778 134.308 32.1621C134.502 32.3375 134.812 32.434 135.051 32.3112C135.378 32.1445 135.422 31.7146 135.422 31.3549C135.493 31.4251 135.563 31.4953 135.634 31.5655L135.599 31.3988H135.59Z" fill="#E5F6FF"/>
<path d="M138.119 45.7077C138.234 46.006 138.631 46.0674 138.959 46.0586C139.286 46.0498 139.666 46.0586 139.852 46.313C139.905 46.3832 139.931 46.4797 139.896 46.5587C139.816 46.7692 139.507 46.699 139.277 46.7166C139.1 46.7341 138.932 46.8394 138.764 46.8921C138.357 47.0324 137.862 46.8833 137.597 46.5411C137.553 46.313 137.659 46.0674 137.845 45.9358C138.039 45.8042 138.304 45.8042 138.499 45.927L138.119 45.6989V45.7077Z" fill="#E5F6FF"/>
<path d="M145.943 22.231C145.97 22.3538 145.996 22.4766 146.023 22.5906C146.217 22.6433 146.456 22.5468 146.535 22.3625C146.615 22.1783 146.518 21.9239 146.323 21.8713C146.129 21.8098 145.899 21.9941 145.925 22.1959L145.952 22.231H145.943Z" fill="#E5F6FF"/>
<path d="M135.13 38.2242C135.006 38.2506 134.874 38.2769 134.75 38.3032C134.768 38.505 134.794 38.7155 134.945 38.8559C135.095 38.9875 135.395 38.9436 135.413 38.7419C135.413 38.6629 135.387 38.5927 135.351 38.5313C135.236 38.3207 135.13 38.1102 135.015 37.8909L135.13 38.2242Z" fill="#E5F6FF"/>
<path d="M25.7197 134.491C26.4712 132.509 26.7453 130.35 26.5331 128.245C26.4978 127.903 26.4447 127.56 26.2767 127.262C25.9408 126.692 25.2246 126.446 24.5615 126.429C22.9347 126.385 21.3875 127.525 20.7951 129.026C20.2028 130.526 20.5122 132.307 21.4406 133.64C21.9534 134.368 22.6872 135 23.5625 135.149C24.4466 135.298 25.4633 134.833 25.7197 133.991C25.5694 133.754 25.1362 133.789 25.0213 134.053L25.7109 134.5L25.7197 134.491Z" fill="white"/>
<path d="M22.6959 128.692C23.4385 128.236 23.916 127.376 23.8983 126.508C23.1291 126.104 22.1565 125.955 21.3874 126.367C20.6182 126.771 20.1938 127.832 20.6712 128.561C21.1398 129.289 22.519 129.183 22.7224 128.35L22.6959 128.701V128.692Z" fill="white"/>
<path d="M23.8716 121.016C24.2783 121.042 24.685 120.858 24.9502 120.551C24.8176 120.428 24.685 120.296 24.517 120.226C24.349 120.156 24.1368 120.174 24.0131 120.305C23.8451 120.489 23.9158 120.779 23.9954 121.007C23.9335 120.981 23.8716 120.946 23.8097 120.919L23.8716 121.016Z" fill="white"/>
<path d="M23.9514 122.612C23.9514 122.735 23.9072 122.858 23.8365 122.955C23.6154 122.735 23.6331 122.376 23.6773 122.06C23.7038 121.884 23.7746 121.683 23.9426 121.647C24.0663 121.621 24.1813 121.691 24.3051 121.718C24.5438 121.753 24.8621 121.595 25.0035 121.788C25.0831 121.902 25.0477 122.069 24.9416 122.165C24.8444 122.262 24.7029 122.305 24.5703 122.349C24.2785 122.437 23.9956 122.534 23.7038 122.621H23.9426L23.9514 122.612Z" fill="white"/>
<path opacity="0.5" d="M24.8178 102.233C25.0034 102.057 24.747 101.724 24.4906 101.759C24.2343 101.794 24.0663 102.022 23.9248 102.233C24.19 102.469 24.5967 102.522 24.9062 102.364L24.8178 102.241V102.233Z" fill="white"/>
<path d="M15.8261 100.803C15.7288 100.873 15.5785 100.82 15.5166 100.724C15.4547 100.627 15.4547 100.496 15.4813 100.382C15.4989 100.311 15.5255 100.25 15.5785 100.197C15.6934 100.083 15.9056 100.101 16.0117 100.224C16.109 100.346 16.0825 100.557 15.9587 100.653C15.8349 100.759 15.6316 100.741 15.5166 100.627L15.8349 100.803H15.8261Z" fill="white"/>
<path d="M21.1398 118.375C21.2017 118.621 21.5907 118.691 21.741 118.489C21.6968 118.366 21.6349 118.243 21.5288 118.165C21.4227 118.086 21.2547 118.077 21.1575 118.165C21.0602 118.252 21.0779 118.445 21.2105 118.489L21.1398 118.375Z" fill="white"/>
<path d="M23.2794 123.648C23.5624 123.762 23.8983 123.735 24.1636 123.578C24.0133 123.376 23.8718 123.174 23.7215 122.972C23.6508 122.876 23.5801 122.779 23.474 122.727C23.2618 122.63 22.9965 122.805 22.9523 123.034C22.9081 123.262 23.0584 123.49 23.2529 123.604L23.2794 123.648Z" fill="white"/>
<path opacity="0.5" d="M17.6034 103.803C17.5592 103.733 17.515 103.663 17.4708 103.592C17.3293 103.61 17.2055 103.724 17.1967 103.864C17.1879 104.005 17.3116 104.136 17.4531 104.128C17.5946 104.119 17.7007 103.952 17.6299 103.829L17.6034 103.812V103.803Z" fill="white"/>
<path d="M22.1388 119.928C21.9708 119.928 21.9001 120.156 21.9619 120.305C22.0238 120.454 22.1653 120.56 22.2449 120.709C22.3244 120.858 22.3421 121.042 22.2802 121.2C22.2449 121.297 22.1741 121.384 22.0769 121.393C22.015 121.402 21.9443 121.376 21.8824 121.349C21.5818 121.218 21.29 121.042 21.1043 120.77C20.9187 120.498 20.8656 120.121 21.0513 119.858C21.1839 119.674 21.4138 119.559 21.6437 119.586C21.8735 119.603 22.0769 119.761 22.1741 119.963L22.1211 119.928H22.1388Z" fill="white"/>
<path d="M26.3828 121.165C26.5773 121.226 26.8071 121.086 26.8602 120.884C26.9132 120.691 26.8248 120.472 26.6745 120.331C26.6038 120.27 26.4977 120.217 26.427 120.279C26.3739 120.314 26.3651 120.384 26.3651 120.446L26.312 121.2L26.3828 121.165Z" fill="white"/>
<path d="M25.7902 111.532C25.3746 111.62 24.9414 111.199 25.021 110.786C25.3481 110.769 25.6929 110.751 25.9758 110.909C26.2587 111.067 26.4179 111.479 26.2057 111.725C26.02 111.751 25.8255 111.786 25.6399 111.813L25.7813 111.523L25.7902 111.532Z" fill="white"/>
<path d="M23.2882 143.914C23.3059 144.01 23.2175 144.089 23.1202 144.098C23.023 144.098 22.9346 144.054 22.8638 143.992C22.802 143.949 22.7401 143.896 22.7135 143.826C22.6516 143.685 22.7047 143.51 22.8285 143.422C22.9523 143.334 23.1291 143.326 23.2617 143.396C23.3324 143.431 23.3943 143.484 23.412 143.554C23.4297 143.624 23.4032 143.712 23.3324 143.738L23.2971 143.914H23.2882Z" fill="white"/>
<path d="M22.5543 116.533C22.6251 116.489 22.7046 116.436 22.7754 116.392C22.7135 116.27 22.6516 116.138 22.519 116.085C22.3952 116.033 22.2095 116.138 22.2449 116.27C22.2626 116.322 22.2979 116.357 22.3333 116.392C22.4571 116.506 22.572 116.612 22.6958 116.726L22.5455 116.542L22.5543 116.533Z" fill="white"/>
<path d="M21.909 111.892C22.0593 111.734 22.2185 111.576 22.2892 111.374C22.3688 111.172 22.3423 110.918 22.1743 110.778C22.0947 110.707 21.9798 110.672 21.8737 110.672C21.5465 110.664 21.2459 110.962 21.2548 111.286C21.2636 111.611 21.5819 111.892 21.9002 111.865V111.901L21.909 111.892Z" fill="white"/>
<path d="M23.4474 110.207C23.4739 110.067 23.5004 109.918 23.5269 109.777C23.4209 109.734 23.3148 109.707 23.1998 109.707C23.0849 109.892 23.1556 110.163 23.3413 110.269L23.4474 110.207Z" fill="white"/>
<path d="M33.5705 119.91C33.5087 119.068 33.2434 118.235 32.8102 117.507C32.7395 117.392 32.6599 117.27 32.5538 117.191C32.3328 117.042 32.0322 117.068 31.7935 117.173C31.1922 117.428 30.8298 118.103 30.8651 118.744C30.9093 119.393 31.316 119.981 31.8819 120.314C32.1913 120.489 32.5626 120.603 32.9075 120.507C33.2523 120.41 33.544 120.077 33.491 119.726C33.3937 119.665 33.2434 119.752 33.2523 119.866L33.5794 119.91H33.5705Z" fill="white"/>
<path d="M16.9224 125.718C17.2584 125.499 17.4794 125.113 17.5059 124.709C17.3291 124.683 17.1434 124.657 16.9666 124.709C16.7898 124.753 16.6218 124.893 16.6041 125.069C16.5776 125.315 16.8075 125.499 17.0196 125.639C16.9489 125.657 16.887 125.665 16.8163 125.683L16.9224 125.718Z" fill="white"/>
<path d="M15.941 122.972C15.9941 122.876 16.0559 122.77 16.0383 122.656C16.0206 122.551 15.941 122.463 15.8703 122.384C15.6669 122.165 15.4813 121.928 15.3221 121.674C15.2514 122.165 15.1807 122.656 15.1099 123.148C15.1099 123.183 15.1011 123.227 15.0746 123.262C15.0038 123.376 14.8182 123.341 14.6944 123.402C14.5087 123.49 14.5087 123.744 14.5529 123.937C14.9066 125.323 15.6139 123.499 15.9233 122.972H15.941Z" fill="white"/>
<path d="M18.0364 128.183C18.3281 128.104 18.5845 127.885 18.6995 127.604C18.4608 127.534 18.222 127.455 17.9833 127.385C17.8684 127.35 17.7535 127.315 17.6385 127.341C17.4175 127.394 17.3026 127.683 17.4087 127.894C17.5147 128.096 17.7711 128.201 17.9922 128.166L18.0364 128.192V128.183Z" fill="white"/>
<path d="M18.3724 143.071C18.3281 143.001 18.2839 142.931 18.2397 142.861C18.0983 142.878 17.9745 142.992 17.9657 143.133C17.9568 143.273 18.0806 143.405 18.2221 143.396C18.3635 143.387 18.4696 143.22 18.3989 143.098L18.3724 143.08V143.071Z" fill="white"/>
<path d="M19.0179 124.35C19.2125 124.288 19.3097 124.034 19.2301 123.841C19.1594 123.648 18.9561 123.525 18.7439 123.507C18.6555 123.499 18.5405 123.525 18.514 123.613C18.4963 123.674 18.5317 123.735 18.567 123.788C18.7085 123.999 18.8411 124.209 18.9826 124.429L19.0179 124.358V124.35Z" fill="white"/>
<path d="M22.3599 125.648C22.5102 125.49 22.6694 125.332 22.7401 125.13C22.8108 124.929 22.7931 124.674 22.6252 124.534C22.5456 124.464 22.4307 124.429 22.3246 124.429C21.9974 124.42 21.6968 124.718 21.7057 125.043C21.7057 125.367 22.0328 125.648 22.3511 125.622V125.657L22.3599 125.648Z" fill="white"/>
<path d="M26.7275 115.629C26.6479 115.427 26.3738 115.392 26.1528 115.401C25.9318 115.41 25.6665 115.41 25.5427 115.234C25.5074 115.182 25.4897 115.12 25.5074 115.068C25.5604 114.927 25.7726 114.971 25.9229 114.954C26.0467 114.936 26.1528 114.866 26.2677 114.831C26.5506 114.734 26.8778 114.831 27.0634 115.059C27.0988 115.217 27.0281 115.383 26.8955 115.471C26.7628 115.559 26.586 115.568 26.4446 115.48L26.7098 115.629H26.7275Z" fill="white"/>
<path d="M23.3943 111.339C23.3148 111.137 23.0407 111.102 22.8196 111.111C22.5986 111.12 22.3334 111.12 22.2096 110.944C22.1742 110.892 22.1566 110.83 22.1742 110.778C22.2273 110.637 22.4395 110.681 22.5898 110.664C22.7136 110.646 22.8196 110.576 22.9346 110.541C23.2175 110.444 23.5446 110.541 23.7303 110.769C23.7657 110.927 23.6949 111.093 23.5623 111.181C23.4297 111.269 23.2529 111.278 23.1114 111.19L23.3766 111.339H23.3943Z" fill="white"/>
<path d="M24.1991 107.374C24.2521 107.207 24.2698 107.023 24.2521 106.847C24.2521 106.821 24.2433 106.786 24.2256 106.768C24.199 106.724 24.1372 106.698 24.0753 106.707C23.9427 106.707 23.81 106.803 23.7658 106.935C23.7216 107.067 23.7481 107.216 23.8366 107.321C23.8808 107.382 23.9427 107.435 24.0222 107.444C24.093 107.453 24.1814 107.409 24.1991 107.339C24.1814 107.321 24.146 107.321 24.1372 107.339L24.1991 107.374Z" fill="white"/>
<path d="M21.9002 133.044C22.2362 132.824 22.4572 132.438 22.4837 132.035C22.3069 132.008 22.1212 131.982 21.9444 132.035C21.7676 132.079 21.5996 132.219 21.5819 132.394C21.5554 132.64 21.7853 132.824 21.9975 132.965C21.9267 132.982 21.8649 132.991 21.7941 133.009L21.9002 133.044Z" fill="white"/>
<path d="M18.1247 132.552C18.3192 132.71 18.6817 132.544 18.6729 132.289C18.5668 132.21 18.443 132.149 18.3104 132.158C18.1778 132.166 18.0452 132.245 18.0186 132.377C17.9921 132.508 18.1336 132.649 18.2573 132.605L18.1336 132.561L18.1247 132.552Z" fill="white"/>
<path d="M21.405 126.674C21.5996 126.832 21.962 126.657 21.9532 126.411C21.8471 126.332 21.7233 126.271 21.5907 126.28C21.4581 126.28 21.3255 126.367 21.299 126.499C21.2724 126.631 21.4139 126.771 21.5377 126.727L21.4139 126.683L21.405 126.674Z" fill="white"/>
<path d="M19.8579 133.202C19.7253 133.298 19.8048 133.526 19.9463 133.605C20.0878 133.684 20.2646 133.693 20.4149 133.754C20.574 133.824 20.6978 133.965 20.742 134.123C20.7685 134.219 20.7685 134.333 20.6978 134.403C20.6536 134.447 20.5829 134.465 20.521 134.482C20.2027 134.553 19.8579 134.588 19.5485 134.482C19.239 134.377 18.9738 134.105 18.9561 133.781C18.9472 133.553 19.071 133.324 19.2655 133.21C19.46 133.096 19.7164 133.088 19.9198 133.202H19.8579Z" fill="white"/>
<path d="M24.7029 114.664C24.5702 114.761 24.6498 114.989 24.7913 115.068C24.9327 115.147 25.1095 115.155 25.2599 115.217C25.419 115.287 25.5428 115.427 25.587 115.585C25.6135 115.682 25.6135 115.796 25.5428 115.866C25.4986 115.91 25.4278 115.927 25.3659 115.945C25.0477 116.015 24.7029 116.05 24.3934 115.945C24.084 115.84 23.8187 115.568 23.801 115.243C23.801 115.015 23.916 114.787 24.1105 114.673C24.305 114.559 24.5614 114.55 24.7647 114.664H24.7029Z" fill="white"/>
<path d="M26.8426 114.875C26.71 114.971 26.7895 115.199 26.931 115.278C27.0724 115.357 27.2493 115.366 27.3996 115.427C27.5587 115.498 27.6825 115.638 27.7267 115.796C27.7532 115.892 27.7532 116.006 27.6825 116.077C27.6383 116.12 27.5676 116.138 27.5057 116.155C27.1874 116.226 26.8426 116.261 26.5331 116.155C26.2237 116.05 25.9584 115.778 25.9408 115.454C25.9408 115.226 26.0557 114.997 26.2502 114.883C26.4447 114.769 26.7011 114.761 26.9045 114.875H26.8426Z" fill="white"/>
<path d="M25.8435 118.015C25.7108 118.112 25.7904 118.34 25.9319 118.419C26.0733 118.498 26.2502 118.507 26.4005 118.568C26.5596 118.638 26.6834 118.779 26.7276 118.937C26.7541 119.033 26.7541 119.147 26.6834 119.217C26.6392 119.261 26.5684 119.279 26.5066 119.296C26.1883 119.366 25.8435 119.402 25.534 119.296C25.2246 119.191 24.9593 118.919 24.9417 118.594C24.9417 118.366 25.0566 118.147 25.2511 118.024C25.4456 117.91 25.702 117.901 25.9053 118.015H25.8435Z" fill="white"/>
<path d="M5.63219 106.689C5.49957 106.786 5.57914 107.014 5.7206 107.093C5.86206 107.172 6.03889 107.181 6.18919 107.242C6.34833 107.312 6.47211 107.453 6.51631 107.611C6.54284 107.707 6.54284 107.821 6.47211 107.891C6.4279 107.935 6.35717 107.953 6.29528 107.97C5.977 108.04 5.63219 108.076 5.32274 107.97C5.0133 107.865 4.74806 107.593 4.73038 107.268C4.73038 107.04 4.84531 106.812 5.03982 106.698C5.23433 106.584 5.49073 106.575 5.69408 106.689H5.63219Z" fill="white"/>
<path d="M18.1426 130.245L18.2399 129.999C18.1161 129.938 17.9835 129.868 17.8509 129.903C17.7182 129.938 17.6298 130.131 17.7448 130.21C17.789 130.245 17.842 130.245 17.8951 130.254C18.0542 130.271 18.2222 130.289 18.3813 130.306L18.1515 130.245H18.1426Z" fill="white"/>
<path d="M14.0048 113.427C14.1551 113.269 14.3142 113.111 14.385 112.909C14.4557 112.708 14.438 112.453 14.27 112.313C14.1905 112.243 14.0755 112.208 13.9694 112.208C13.6423 112.199 13.3417 112.497 13.3505 112.822C13.3505 113.146 13.6777 113.427 13.996 113.401V113.436L14.0048 113.427Z" fill="white"/>
<path d="M24.5259 128.201C24.5082 128.508 24.0661 128.692 23.8363 128.482C23.8009 128.315 23.792 128.139 23.8363 127.973C24.0219 127.955 24.2164 128.017 24.3667 128.131L24.5347 128.192L24.5259 128.201Z" fill="white"/>
<path opacity="0.5" d="M15.6493 111.208C15.72 111.102 15.7908 110.997 15.8084 110.874C15.8261 110.751 15.7908 110.611 15.6847 110.55C15.5078 110.453 15.2868 110.611 15.0835 110.602C14.8801 110.602 14.6856 110.409 14.4911 110.471C14.2966 110.532 14.2524 110.813 14.3585 110.979C14.4646 111.146 14.6679 111.234 14.8624 111.295C15.0393 111.348 15.2249 111.392 15.4017 111.357C15.5786 111.313 15.7377 111.155 15.72 110.971L15.6581 111.208H15.6493Z" fill="white"/>
<path d="M23.4915 119.165C24.3668 119.244 25.2597 118.831 25.7725 118.129C25.4012 117.349 24.7116 116.656 23.854 116.524C22.9964 116.392 22.015 116.989 21.9531 117.857C21.8912 118.717 23.0494 119.454 23.7214 118.901L23.4915 119.165Z" fill="white"/>
<path d="M26.5152 128.49C26.3915 128.49 26.303 128.359 26.3119 128.245C26.3207 128.131 26.4003 128.025 26.4976 127.947C26.5506 127.903 26.6125 127.868 26.6832 127.859C26.8424 127.832 27.0103 127.973 27.0103 128.14C27.0103 128.297 26.8689 128.447 26.7097 128.455C26.5506 128.455 26.3915 128.324 26.3649 128.166L26.5152 128.49Z" fill="white"/>
<path d="M24.9946 123.972C24.8531 123.806 24.579 123.867 24.3757 123.946C24.1723 124.025 23.9248 124.113 23.748 123.99C23.6949 123.955 23.6595 123.902 23.6595 123.841C23.6595 123.683 23.8806 123.665 24.022 123.595C24.137 123.542 24.2165 123.437 24.305 123.367C24.5348 123.183 24.8796 123.165 25.136 123.314C25.2156 123.446 25.2068 123.63 25.1184 123.762C25.0299 123.893 24.8531 123.955 24.7028 123.92L25.0034 123.981L24.9946 123.972Z" fill="white"/>
<path d="M20.4501 118.665C20.4501 118.577 20.4678 118.498 20.4678 118.41C20.344 118.34 20.1761 118.358 20.0877 118.463C19.9992 118.568 20.0169 118.752 20.1319 118.831C20.2468 118.91 20.4325 118.831 20.459 118.7V118.673L20.4501 118.665Z" fill="white"/>
<path d="M22.1566 123.156C22.1124 123.244 21.9886 123.253 21.9091 123.2C21.8295 123.148 21.7853 123.051 21.7588 122.963C21.7411 122.893 21.7234 122.814 21.7411 122.735C21.7676 122.586 21.9268 122.481 22.0771 122.481C22.2274 122.481 22.3688 122.586 22.4395 122.718C22.4749 122.788 22.4926 122.867 22.4661 122.928C22.4395 122.999 22.36 123.051 22.2892 123.025L22.1566 123.148V123.156Z" fill="white"/>
<path d="M14.9245 124.218C15.5345 124.841 16.4805 125.113 17.3293 124.911C17.568 124.078 17.4973 123.113 16.9315 122.446C16.3656 121.788 15.2339 121.604 14.615 122.218C13.9961 122.832 14.394 124.139 15.2605 124.157L14.9156 124.209L14.9245 124.218Z" fill="white"/>
<path d="M19.2389 129.499C19.4246 129.324 19.1682 128.99 18.9118 129.026C18.6554 129.061 18.4874 129.289 18.3459 129.499C18.6112 129.736 19.0179 129.789 19.3273 129.631L19.2389 129.508V129.499Z" fill="white"/>
<path d="M27.8148 125.964C27.8148 125.876 27.8325 125.797 27.8325 125.709C27.7087 125.639 27.5407 125.657 27.4523 125.762C27.3639 125.867 27.3816 126.052 27.4965 126.13C27.6115 126.209 27.7971 126.13 27.8237 125.999V125.973L27.8148 125.964Z" fill="white"/>
<path d="M23.3235 124.832C23.6771 123.981 23.8186 123.051 23.7567 122.139C23.7479 121.99 23.7302 121.84 23.6595 121.709C23.518 121.454 23.2174 121.34 22.9256 121.323C22.2183 121.288 21.5375 121.761 21.2635 122.402C20.9894 123.051 21.1043 123.823 21.4845 124.411C21.6967 124.736 22.0061 125.016 22.3863 125.095C22.7665 125.174 23.2085 124.981 23.3412 124.621C23.2793 124.516 23.0936 124.525 23.0406 124.639L23.3323 124.841L23.3235 124.832Z" fill="white"/>
<path d="M9.5312 118.331C10.2739 117.875 10.7513 117.015 10.7336 116.147C9.96443 115.743 8.99189 115.594 8.2227 116.006C7.45351 116.41 7.02912 117.471 7.50655 118.2C7.97514 118.928 9.35438 118.823 9.55773 117.989L9.5312 118.34V118.331Z" fill="white"/>
<path d="M22.7488 108.532C23.0847 108.312 23.3058 107.926 23.3323 107.523C23.1555 107.496 22.9698 107.47 22.793 107.523C22.6162 107.567 22.4482 107.707 22.4305 107.882C22.404 108.128 22.6338 108.312 22.846 108.453C22.7753 108.47 22.7134 108.479 22.6427 108.497L22.7488 108.532Z" fill="white"/>
<path d="M21.7765 105.786C21.8295 105.689 21.8914 105.584 21.8737 105.47C21.856 105.365 21.7765 105.277 21.7057 105.198C21.5024 104.979 21.3167 104.742 21.1576 104.487C21.0868 104.979 21.0161 105.47 20.9454 105.961C20.9454 105.996 20.9365 106.04 20.91 106.075C20.8393 106.189 20.6536 106.154 20.5298 106.216C20.3442 106.303 20.3442 106.558 20.3884 106.751C20.742 108.146 21.4493 106.312 21.7588 105.786H21.7765Z" fill="white"/>
<path d="M25.3569 123.051C25.3835 122.911 25.41 122.762 25.4365 122.621C25.1447 122.586 24.8088 122.7 24.6938 122.972C24.5789 123.244 24.8176 123.613 25.1005 123.551C25.2774 123.507 25.5338 123.376 25.578 123.551L25.3481 123.051H25.3569Z" fill="white"/>
<path d="M19.3275 112.05C19.3275 112.173 19.2833 112.295 19.2125 112.392C18.9915 112.173 19.0092 111.813 19.0534 111.497C19.0799 111.322 19.1507 111.12 19.3186 111.085C19.4424 111.058 19.5574 111.129 19.6811 111.155C19.9199 111.19 20.2381 111.032 20.3796 111.225C20.4592 111.339 20.4238 111.506 20.3177 111.602C20.2116 111.699 20.079 111.743 19.9464 111.787L19.0799 112.058H19.3186L19.3275 112.05Z" fill="white"/>
<path d="M14.5265 111.874C14.7121 111.699 14.4557 111.365 14.1993 111.401C13.9429 111.436 13.775 111.664 13.6247 111.874C13.8899 112.111 14.2966 112.164 14.606 112.006L14.5176 111.883L14.5265 111.874Z" fill="white"/>
<path opacity="0.5" d="M17.5149 107.347C17.4176 107.418 17.2673 107.365 17.2054 107.268C17.1436 107.172 17.1436 107.04 17.1701 106.926C17.1878 106.856 17.2143 106.795 17.2673 106.742C17.3823 106.628 17.5945 106.646 17.7006 106.768C17.7978 106.891 17.7713 107.102 17.6475 107.198C17.5237 107.303 17.3204 107.286 17.2054 107.172L17.5237 107.347H17.5149Z" fill="white"/>
<path d="M18.9737 108.04C19.1682 108.198 19.5307 108.023 19.5218 107.777C19.4157 107.698 19.292 107.637 19.1593 107.646C19.0267 107.646 18.8941 107.733 18.8676 107.865C18.841 107.997 18.9825 108.137 19.1063 108.093L18.9825 108.049L18.9737 108.04Z" fill="white"/>
<path d="M23.8628 110.997C24.1545 110.918 24.4109 110.699 24.5259 110.418C24.2871 110.348 24.0484 110.269 23.8097 110.199C23.6948 110.163 23.5798 110.128 23.4649 110.155C23.2439 110.207 23.1289 110.497 23.235 110.707C23.3411 110.909 23.5975 111.014 23.8186 110.979L23.8628 111.006V110.997Z" fill="white"/>
<path opacity="0.5" d="M14.2261 108.751C14.0758 108.848 13.8724 108.848 13.7221 108.751C13.5718 108.655 13.4923 108.47 13.5188 108.295C13.5365 108.172 13.6514 108.049 13.7663 108.093C13.8105 108.111 13.8459 108.154 13.8813 108.19C14.0227 108.365 14.1642 108.54 14.2968 108.707C14.2614 108.725 14.2261 108.742 14.1907 108.769L14.2172 108.751H14.2261Z" fill="white"/>
<path opacity="0.5" d="M11.2197 106.996C11.1402 106.795 10.8661 106.76 10.645 106.768C10.424 106.777 10.1588 106.777 10.035 106.602C9.99963 106.549 9.98195 106.488 9.99963 106.435C10.0527 106.295 10.2649 106.338 10.4152 106.321C10.5389 106.303 10.645 106.233 10.76 106.198C11.0429 106.102 11.37 106.198 11.5557 106.426C11.5911 106.575 11.5203 106.751 11.3877 106.838C11.2551 106.926 11.0783 106.935 10.9368 106.847L11.202 106.996H11.2197Z" fill="white"/>
<path opacity="0.5" d="M28.8317 116.463C28.7522 116.261 28.4781 116.226 28.257 116.234C28.036 116.243 27.7708 116.243 27.647 116.068C27.6116 116.015 27.5939 115.954 27.6116 115.901C27.6647 115.761 27.8769 115.805 28.0272 115.787C28.1509 115.769 28.257 115.699 28.372 115.664C28.6549 115.568 28.982 115.664 29.1677 115.892C29.2031 116.05 29.1323 116.217 28.9997 116.305C28.8671 116.392 28.6903 116.401 28.5488 116.313L28.814 116.463H28.8317Z" fill="white"/>
<path opacity="0.5" d="M12.3781 105.128C12.4135 105.049 12.4489 104.97 12.4842 104.9C12.3958 104.794 12.2278 104.75 12.1041 104.821C11.9803 104.891 11.9361 105.066 12.0245 105.18C12.1129 105.286 12.3074 105.286 12.3781 105.163V105.137V105.128Z" fill="white"/>
<path d="M20.7064 108.69C20.5738 108.786 20.6534 109.014 20.7948 109.093C20.9363 109.172 21.1131 109.181 21.2634 109.242C21.4225 109.312 21.5463 109.453 21.5905 109.611C21.6171 109.707 21.6171 109.821 21.5463 109.892C21.5021 109.935 21.4314 109.953 21.3695 109.97C21.0512 110.041 20.7064 110.076 20.397 109.97C20.0875 109.865 19.8223 109.593 19.8046 109.269C19.8046 109.041 19.9195 108.812 20.114 108.698C20.3085 108.584 20.5649 108.576 20.7683 108.69H20.7064Z" fill="white"/>
<path d="M24.853 107.154C25.0475 107.093 25.1448 106.838 25.0652 106.645C24.9945 106.452 24.7911 106.33 24.5789 106.312C24.4905 106.303 24.3756 106.33 24.3491 106.417C24.3314 106.479 24.3667 106.54 24.4021 106.593C24.5436 106.803 24.6762 107.014 24.8177 107.233L24.853 107.163V107.154Z" fill="white"/>
<path d="M16.4891 114.875C16.0736 114.962 15.6404 114.541 15.7199 114.129C16.0471 114.111 16.3919 114.094 16.6748 114.252C16.9577 114.41 17.1169 114.822 16.9047 115.068C16.719 115.094 16.5245 115.129 16.3388 115.155L16.4803 114.866L16.4891 114.875Z" fill="white"/>
<path opacity="0.5" d="M18.9912 105.724C19.0265 105.645 19.0531 105.558 19.0884 105.479C18.9647 105.417 18.832 105.347 18.6994 105.382C18.5668 105.417 18.4784 105.61 18.5933 105.689C18.6375 105.724 18.6906 105.724 18.7436 105.733C18.9028 105.751 19.0708 105.768 19.2299 105.786L19 105.724H18.9912Z" fill="white"/>
<path d="M22.5278 128.657C22.6781 128.499 22.8373 128.341 22.908 128.14C22.9876 127.938 22.9611 127.683 22.7931 127.543C22.7135 127.473 22.5986 127.438 22.4925 127.438C22.1653 127.429 21.8647 127.727 21.8736 128.052C21.8736 128.376 22.2007 128.657 22.519 128.631V128.666L22.5278 128.657Z" fill="white"/>
<path d="M13.165 119.849C13.1915 119.709 13.218 119.559 13.2445 119.419C13.1384 119.375 13.0323 119.349 12.9174 119.349C12.8025 119.533 12.8732 119.805 13.0589 119.91L13.165 119.849Z" fill="white"/>
<path d="M21.122 139.939C21.0247 140.01 20.8744 139.957 20.8125 139.86C20.7506 139.764 20.7506 139.632 20.7772 139.518C20.7948 139.448 20.8214 139.387 20.8744 139.334C20.9893 139.22 21.2015 139.237 21.3076 139.36C21.4049 139.483 21.3784 139.694 21.2546 139.79C21.1308 139.887 20.9275 139.878 20.8125 139.764L21.1308 139.939H21.122Z" fill="white"/>
<path d="M15.8525 117.384C15.8791 117.243 15.9056 117.094 15.9321 116.954C15.826 116.91 15.7199 116.884 15.605 116.884C15.4901 117.068 15.5608 117.34 15.7464 117.445L15.8525 117.384Z" fill="white"/>
<path d="M27.8413 119.173C28.0004 119.121 27.9916 118.884 27.8767 118.761C27.7617 118.638 27.5937 118.586 27.47 118.48C27.3373 118.366 27.2666 118.2 27.2666 118.033C27.2666 117.936 27.302 117.822 27.3904 117.779C27.4523 117.743 27.523 117.752 27.5849 117.752C27.912 117.779 28.248 117.84 28.5132 118.033C28.7785 118.226 28.9553 118.568 28.8669 118.875C28.805 119.094 28.6282 119.27 28.4071 119.331C28.1861 119.384 27.9386 119.314 27.7794 119.156L27.8413 119.173Z" fill="white"/>
<path d="M21.0954 124.797C20.9982 124.876 20.9009 124.955 20.8479 125.069C20.7948 125.183 20.786 125.323 20.8744 125.42C21.0158 125.569 21.2722 125.473 21.4667 125.543C21.6613 125.613 21.785 125.841 21.9972 125.841C22.2006 125.841 22.3243 125.587 22.2713 125.394C22.2183 125.201 22.0503 125.06 21.8823 124.946C21.732 124.841 21.5728 124.744 21.3872 124.736C21.2015 124.727 21.007 124.832 20.9716 125.008L21.1043 124.797H21.0954Z" fill="white"/>
<path d="M22.8197 115.48C22.7578 116.226 22.8728 116.98 23.1557 117.682C23.1999 117.796 23.253 117.91 23.3414 117.989C23.5093 118.147 23.7746 118.165 24.0045 118.112C24.5615 117.972 24.977 117.436 25.03 116.866C25.0831 116.296 24.809 115.726 24.3581 115.366C24.1106 115.164 23.8011 115.024 23.4917 115.059C23.1734 115.094 22.8816 115.348 22.8728 115.664C22.9524 115.734 23.0938 115.673 23.1027 115.576L22.8286 115.489L22.8197 115.48Z" fill="white"/>
<path d="M27.8591 117.594C27.9741 117.594 28.0978 117.594 28.1862 117.524C28.2747 117.454 28.31 117.349 28.3454 117.243C28.4338 116.963 28.5576 116.682 28.699 116.419C28.2305 116.603 27.7707 116.787 27.3021 116.971C27.2668 116.989 27.2225 116.998 27.1872 116.998C27.0457 116.998 26.9927 116.822 26.8777 116.743C26.7098 116.629 26.4799 116.743 26.3384 116.892C25.2952 117.893 27.2491 117.586 27.868 117.594H27.8591Z" fill="white"/>
<path d="M23.0052 115.436C23.0405 115.366 23.0847 115.287 23.1289 115.217C23.0494 115.103 22.8814 115.05 22.7576 115.112C22.6338 115.173 22.5719 115.348 22.6515 115.462C22.7311 115.576 22.9344 115.585 23.0052 115.462V115.436Z" fill="white"/>
<path d="M27.0723 115.357C27.2314 115.489 27.4966 115.445 27.6204 115.287C27.7442 115.129 27.753 114.892 27.6735 114.708C27.6381 114.629 27.5585 114.541 27.4701 114.559C27.4082 114.576 27.3729 114.638 27.3463 114.69C27.2314 114.918 27.1076 115.138 26.9927 115.366H27.0723V115.357Z" fill="white"/>
<path d="M24.3932 114.778C24.7557 114.962 25.2066 114.962 25.5691 114.778C25.4984 114.611 25.4276 114.436 25.3039 114.313C25.1712 114.182 24.9767 114.111 24.8087 114.182C24.5789 114.278 24.5347 114.576 24.517 114.822C24.4728 114.769 24.4286 114.717 24.3844 114.673L24.4021 114.787L24.3932 114.778Z" fill="white"/>
<path d="M23.0231 113.567C22.9171 113.629 22.7933 113.655 22.6695 113.638C22.7491 113.331 23.0762 113.173 23.368 113.059C23.5359 112.997 23.7481 112.953 23.8631 113.085C23.9426 113.173 23.9426 113.313 23.9868 113.427C24.0753 113.655 24.367 113.839 24.2698 114.067C24.2167 114.19 24.0487 114.243 23.9161 114.208C23.7835 114.173 23.6774 114.076 23.5713 113.98C23.3503 113.778 23.1204 113.576 22.8994 113.374L23.0231 113.576V113.567Z" fill="white"/>
<path d="M26.197 116.954C26.4092 117.173 26.7363 117.278 27.0369 117.235C26.9839 116.989 26.9308 116.752 26.8778 116.506C26.8513 116.392 26.8247 116.27 26.7452 116.182C26.586 116.015 26.2766 116.068 26.144 116.252C26.0113 116.445 26.0555 116.717 26.197 116.892V116.945V116.954Z" fill="white"/>
<path d="M26.639 113.085C26.4887 113.015 26.3296 113.199 26.3296 113.366C26.3296 113.532 26.418 113.681 26.4356 113.848C26.4533 114.015 26.3914 114.19 26.2765 114.313C26.2058 114.383 26.1085 114.436 26.0113 114.418C25.9494 114.401 25.8963 114.348 25.8521 114.304C25.6311 114.067 25.4277 113.787 25.3659 113.471C25.304 113.155 25.4101 112.787 25.6841 112.611C25.8786 112.488 26.135 112.488 26.3384 112.594C26.5417 112.699 26.6744 112.927 26.6744 113.146L26.6478 113.094L26.639 113.085Z" fill="white"/>
<path d="M19.3802 120.902C19.5924 120.954 19.8046 121.007 20.0256 120.972C20.2378 120.937 20.45 120.788 20.4942 120.577C20.5119 120.472 20.4942 120.358 20.4411 120.27C20.2908 119.981 19.8753 119.867 19.6012 120.033C19.3183 120.2 19.2299 120.612 19.4155 120.884L19.389 120.902H19.3802Z" fill="white"/>
<path d="M23.8804 122.7C24.2429 122.884 24.6938 122.884 25.0563 122.7C24.9856 122.534 24.9149 122.358 24.7911 122.235C24.6585 122.104 24.464 122.033 24.296 122.104C24.0661 122.2 24.0219 122.498 24.0042 122.744C23.96 122.691 23.9158 122.639 23.8716 122.595L23.8893 122.709L23.8804 122.7Z" fill="white"/>
<path d="M22.7136 112.866C22.6429 112.655 22.3777 112.602 22.1566 112.594C21.9356 112.585 21.6704 112.576 21.5643 112.383C21.5289 112.33 21.5201 112.269 21.5466 112.208C21.6085 112.067 21.8207 112.129 21.971 112.12C22.0947 112.12 22.2097 112.05 22.3246 112.023C22.6075 111.944 22.9347 112.067 23.1026 112.304C23.1203 112.462 23.0408 112.62 22.9081 112.708C22.7755 112.787 22.5899 112.778 22.4572 112.69L22.7048 112.857L22.7136 112.866Z" fill="white"/>
<path d="M16.4804 128.543C16.4716 128.464 16.4539 128.376 16.4451 128.297C16.3125 128.254 16.1533 128.315 16.0826 128.438C16.0207 128.561 16.0826 128.736 16.2064 128.78C16.339 128.824 16.507 128.71 16.4893 128.578L16.4716 128.552L16.4804 128.543Z" fill="white"/>
<path d="M24.4554 118.068C24.5438 118.051 24.6322 118.042 24.7206 118.024C24.7206 117.893 24.7029 117.743 24.6145 117.638C24.5173 117.542 24.3051 117.559 24.2874 117.7C24.2874 117.752 24.3051 117.796 24.3227 117.849C24.3935 117.998 24.4554 118.147 24.5261 118.296L24.4642 118.068H24.4554Z" fill="white"/>
</g>
<path style="mix-blend-mode:multiply" opacity="0.5" d="M88.6692 183.182C108.582 183.182 124.724 179.615 124.724 175.216C124.724 170.816 108.582 167.25 88.6692 167.25C68.7567 167.25 52.6145 170.816 52.6145 175.216C52.6145 179.615 68.7567 183.182 88.6692 183.182Z" fill="url(#paint0_radial_14112_460)"/>
<path d="M130.621 115.994C130.621 115.994 130.621 124.411 127.211 129.671C125.278 132.662 121.879 134.385 117.97 134.89C114.987 135.282 111.713 134.973 108.532 134.003C101.183 131.755 96.3595 120.398 93.7608 109.217C91.1621 98.0361 97.3989 94.6632 98.2825 94.9726C99.9145 95.5606 103.979 100.811 108.657 105.555C111.037 107.969 113.573 110.249 116.026 111.724C123.303 116.076 130.61 115.994 130.61 115.994H130.621Z" fill="url(#paint1_linear_14112_460)"/>
<path style="mix-blend-mode:multiply" opacity="0.3" d="M117.97 134.89C114.987 135.282 111.713 134.973 108.532 134.003C101.183 131.755 96.3595 120.398 93.7608 109.217C91.1621 98.0361 97.3989 94.6632 98.2825 94.9726C99.9145 95.5606 103.979 100.811 108.657 105.555C108.657 105.555 104.873 113.57 106.494 124.442C108.126 135.303 117.96 134.88 117.96 134.88L117.97 134.89Z" fill="url(#paint2_linear_14112_460)"/>
<path d="M77.7006 164.493C77.7214 171.755 75.1746 188.98 70.0292 188.103C68.917 187.918 67.5864 186.793 66.1623 185.04C61.8173 179.728 56.5368 168.722 53.5535 161.182C51.9319 157.067 50.9755 153.983 51.2458 153.405C52.8466 149.857 75.7879 160.079 77.2744 161.399C77.555 161.657 77.7006 162.802 77.7006 164.493Z" fill="url(#paint3_linear_14112_460)"/>
<path d="M51.2355 153.405C49.4788 156.747 70.3308 166.876 77.524 162.049C77.524 162.049 53.564 148.97 51.2355 153.405Z" fill="url(#paint4_linear_14112_460)"/>
<path style="mix-blend-mode:multiply" opacity="0.3" d="M61.5055 164.39C60.6947 165.844 64.863 182.121 70.0292 188.103C68.917 187.918 67.5864 186.793 66.1623 185.04C65.0085 182.265 63.2934 178.139 61.6302 174.014C59.4993 168.702 55.5389 163.565 53.5535 161.172C51.9319 157.056 50.9755 153.972 51.2458 153.395C52.8466 149.846 75.7879 160.068 77.2744 161.389C77.555 161.646 77.7006 162.791 77.7006 164.483C77.7006 164.483 62.3163 162.936 61.5055 164.38V164.39Z" fill="url(#paint5_linear_14112_460)"/>
<path d="M102.555 156.675C102.378 157.314 102.17 157.985 101.973 158.676C98.8125 169.186 93.3033 184.493 89.1558 189.733C88.1683 190.991 87.2535 191.662 86.4739 191.559C86.266 191.538 86.0581 191.466 85.8606 191.373C85.1641 191.053 84.4885 190.342 83.844 189.341C79.8108 183.111 76.9003 165.659 77.4928 160.687C77.5656 160.068 77.6903 159.645 77.8774 159.46C81.2661 156.128 103.542 146.453 104.426 148.155C104.654 148.609 103.896 151.992 102.555 156.685V156.675Z" fill="url(#paint6_linear_14112_460)"/>
<path d="M77.4927 160.677C76.6403 162.09 98.6149 161.976 104.426 148.145C104.426 148.145 85.5487 147.402 77.4927 160.677Z" fill="url(#paint7_linear_14112_460)"/>
<path d="M88.4491 167.515C87.5343 167.65 86.2246 174.54 87.6279 175.159C89.0208 175.767 90.5696 167.216 88.4491 167.515Z" fill="white"/>
<path style="mix-blend-mode:multiply" opacity="0.3" d="M102.555 156.675C102.555 156.675 90.2888 158.284 86.7026 163.379C83.1164 168.464 82.0561 181.729 83.844 189.321C79.8108 183.09 76.9003 165.648 77.4928 160.677C77.5656 160.058 77.6903 159.635 77.8774 159.449C81.2661 156.118 103.542 146.443 104.426 148.145C104.654 148.598 103.896 151.982 102.555 156.675Z" fill="url(#paint8_linear_14112_460)"/>
<path d="M55.404 98.3868C55.3832 104.607 54.4997 113.591 51.6619 120.852C46.953 132.879 39.8846 148.01 39.6767 148.485C35.3628 151.105 30.1862 150.971 26.9015 150.496C24.9057 150.207 23.6063 149.795 23.6063 149.795C23.6063 149.795 25.072 136.025 32.7018 120.419C36.527 112.58 41.4126 105.287 45.6225 99.9134C45.6433 99.8927 45.6641 99.8618 45.6849 99.8412C45.7265 99.7689 45.7888 99.7071 45.8408 99.6349C45.872 99.5936 45.9032 99.5627 45.9239 99.5214C45.9551 99.4905 45.9863 99.4492 45.9967 99.4183C46.0383 99.3667 46.0695 99.3254 46.1111 99.2842L46.1318 99.2635L46.1526 99.2429C50.4249 93.8587 53.8968 90.5993 54.6244 90.9912C55.061 91.2284 55.4456 94.1681 55.4248 98.3971L55.404 98.3868Z" fill="url(#paint9_linear_14112_460)"/>
<path d="M23.658 149.248C23.658 149.248 29.2192 140.14 34.9571 141.327C40.6951 142.513 39.666 148.495 39.666 148.495C39.666 148.495 32.3273 153.766 23.658 149.248Z" fill="url(#paint10_linear_14112_460)"/>
<path style="mix-blend-mode:multiply" opacity="0.3" d="M55.404 98.3868C55.3832 104.607 54.4997 113.591 51.6619 120.852C46.953 132.879 39.8846 148.01 39.6767 148.485L26.9015 150.496C24.9057 150.207 23.6063 149.795 23.6063 149.795C23.6063 149.795 25.072 136.025 32.7018 120.419C36.527 112.58 41.4126 105.287 45.6225 99.9134C43.2109 103.07 33.1383 116.798 30.4253 128.464C27.338 141.739 39.7806 136.623 44.8741 128.464C49.9571 120.305 55.2689 98.3971 55.2689 98.3971H55.4248L55.404 98.3868Z" fill="url(#paint11_linear_14112_460)"/>
<path d="M41.5059 119.604C40.4976 119.222 45.7262 107.464 47.3478 107.36C48.9694 107.257 42.3687 119.924 41.5059 119.604Z" fill="white"/>
<path d="M40.9758 120.862C40.1754 120.439 39.427 122.647 40.1547 122.967C40.8823 123.286 41.8802 121.337 40.9758 120.862Z" fill="white"/>
<path d="M103.147 11.1767C103.147 11.1767 109.644 5.60678 117.606 4.64752C117.606 4.64752 120.039 5.8337 122.856 14.5289C125.673 23.2242 120.475 40.4186 120.475 40.4186L103.147 11.187V11.1767Z" fill="url(#paint12_linear_14112_460)"/>
<path d="M117.606 4.63724C117.606 4.63724 111.172 11.4862 111.172 22.5228L113.656 24.0803L120.912 9.18599C120.912 9.18599 118.5 4.51347 117.606 4.63724Z" fill="url(#paint13_linear_14112_460)"/>
<path d="M113.417 23.3273C113.417 23.3273 111.702 13.8997 117.96 6.97864C117.96 6.97864 125.018 10.2793 127.949 22.5228C130.881 34.7662 123.261 42.1206 123.261 42.1206L113.417 23.3273Z" fill="#4154FF"/>
<path d="M109.789 7.38091C108.583 8.02042 108.687 9.30974 111.172 8.98999C113.656 8.67024 115.007 6.73109 114.737 6.35976C114.467 5.98844 111.13 6.65889 109.789 7.38091Z" fill="white"/>
<path d="M48.5953 12.5692C48.5953 12.5692 42.0986 6.9993 34.1362 6.04004C34.1362 6.04004 31.7038 7.22622 28.8868 15.9214C26.0698 24.6167 31.2672 41.8111 31.2672 41.8111L48.5953 12.5795V12.5692Z" fill="url(#paint14_linear_14112_460)"/>
<path d="M34.1464 6.0297C34.1464 6.0297 40.5807 12.8786 40.5807 23.9152L38.0964 25.4728L30.8408 10.5784C30.8408 10.5784 33.2524 5.90592 34.1464 6.0297Z" fill="url(#paint15_linear_14112_460)"/>
<path d="M38.3253 24.7198C38.3253 24.7198 40.0404 15.2922 33.7828 8.37109C33.7828 8.37109 26.7247 11.6718 23.7934 23.9152C20.862 36.1587 29.2922 44.3072 29.2922 44.3072L38.3149 24.7301L38.3253 24.7198Z" fill="#4154FF"/>
<path d="M41.9635 8.77337C43.1693 9.41287 43.0654 10.7022 40.581 10.3824C38.0966 10.0627 36.7453 8.12354 37.0156 7.75222C37.2858 7.38089 40.6226 8.05134 41.9635 8.77337Z" fill="white"/>
<path d="M104.135 141.378C102.16 152.972 91.6919 160.708 76.6922 160.708C63.6364 160.708 52.5659 155.88 49.645 145.236C46.724 134.612 47.8571 114.952 51.7551 102.709C52.3372 100.883 53.0441 99.1191 53.8549 97.4482V97.4275C54.6033 95.9113 55.4245 94.4672 56.3288 93.116V93.0954C61.0896 85.9783 68.0646 81.3264 75.9542 81.3264C83.8439 81.3264 90.4446 84.6787 94.7168 89.6297C96.7022 91.9298 98.2615 94.591 99.3737 97.4069C100.663 100.656 101.744 104.101 102.596 107.649C102.596 107.67 102.596 107.711 102.617 107.752C105.32 118.872 105.891 131.012 104.124 141.368L104.135 141.378Z" fill="url(#paint16_linear_14112_460)"/>
<path style="mix-blend-mode:multiply" opacity="0.3" d="M104.135 141.378C102.16 152.972 91.6919 160.708 76.6922 160.708C63.6364 160.708 52.5659 155.881 49.645 145.236C46.724 134.612 47.8571 114.952 51.7551 102.709C52.3372 100.883 53.0441 99.1191 53.8549 97.4482V97.4276C53.8549 97.4276 45.9652 123.42 52.2749 139.975C58.5949 156.53 88.0122 156.18 97.9704 145.184C107.45 134.715 103.064 110.125 102.627 107.773C105.33 118.892 105.902 131.033 104.135 141.388V141.378Z" fill="url(#paint17_linear_14112_460)"/>
<path d="M50.2066 134.488C52.4414 118.923 65.0191 108.371 79.0002 109.681C94.0622 111.094 102.16 125.36 101.952 137.603C101.734 149.846 92.7213 159.408 76.547 159.408C60.3727 159.408 48.1172 149.042 50.2066 134.488Z" fill="url(#paint18_linear_14112_460)"/>
<path d="M50.3518 135.777C52.5867 120.213 65.1644 109.661 79.1454 110.971C94.2075 112.384 102.305 126.649 102.097 138.892C101.879 151.136 92.8666 160.697 76.6922 160.697C60.5179 160.697 48.2625 150.331 50.3518 135.777Z" fill="#4154FF"/>
<path style="mix-blend-mode:multiply" opacity="0.5" d="M94.7274 89.6297C91.5362 94.6013 73.9378 97.4997 63.7716 96.5817C54.9153 95.7772 56.2666 93.4048 56.329 93.1057V93.0851C61.0898 85.968 68.0647 81.3161 75.9543 81.3161C83.844 81.3161 90.4447 84.6684 94.717 89.6194L94.7274 89.6297Z" fill="url(#paint19_linear_14112_460)"/>
<path d="M88.4801 98.2527C87.6589 98.5209 87.6277 105.06 88.4801 106.123C89.3325 107.175 90.715 106.855 91.1724 105.308C91.6297 103.771 89.7171 97.8504 88.4801 98.2527Z" fill="white"/>
<path d="M89.9872 107.866C89.3011 108.031 89.2284 109.65 89.5402 110.218C89.8521 110.785 91.0371 110.661 91.2346 109.97C91.4321 109.279 90.6733 107.701 89.9872 107.866Z" fill="white"/>
<path style="mix-blend-mode:screen" opacity="0.72" d="M59.1978 151.631C59.1978 151.631 62.8048 157.871 76.2556 157.923C89.7065 157.974 95.1742 150.032 95.1742 150.032C95.1742 150.032 88.9685 154.044 80.1017 151.631C71.2246 149.217 62.4514 147.866 59.2082 151.631H59.1978Z" fill="url(#paint20_linear_14112_460)"/>
<path style="mix-blend-mode:screen" opacity="0.72" d="M55.695 125.906C58.3457 130.115 69.281 127.876 81.5989 129.062C93.9167 130.259 96.0165 134.23 98.6152 133.426C101.214 132.621 97.1079 114.22 78.7091 112.972C60.3103 111.724 55.0402 124.854 55.7054 125.896L55.695 125.906Z" fill="url(#paint21_linear_14112_460)"/>
<path d="M30.3315 72.1773C40.2897 94.9727 114.831 87.8659 123.739 69.1345C133.479 48.66 111.078 -1.96414 75.3618 0.397911C45.1856 2.39895 17.5355 42.8735 30.3315 72.1773Z" fill="url(#paint22_linear_14112_460)"/>
<path d="M34.4478 68.9592C43.9694 87.6596 109.041 84.5652 118.542 67.381C126.608 52.7859 107.554 8.34016 74.8628 9.9183C42.1711 11.5067 25.3003 51.0117 34.4478 68.9592Z" fill="url(#paint23_linear_14112_460)"/>
<path d="M105.091 46.9271C103.813 50.331 86.6507 49.939 86.6715 48.7116C86.7755 41.9142 90.4448 32.9818 97.295 33.0437C104.374 33.1055 107.482 40.5836 105.102 46.9271H105.091Z" fill="white"/>
<path d="M47.2646 47.381C48.7407 50.7126 65.8505 49.3614 65.757 48.134C65.2684 41.347 61.1105 32.6414 54.2707 33.085C47.2127 33.5388 44.5204 41.1819 47.2646 47.381Z" fill="white"/>
<path d="M66.0587 59.9648C63.4808 60.5837 68.8757 69.1345 77.5346 69.1345C85.2163 69.1345 89.5509 60.3465 88.5738 59.9648C87.5967 59.5832 82.9918 61.9452 76.5782 61.9452C70.1646 61.9452 67.1398 59.707 66.0587 59.9648Z" fill="#2F95CD"/>
<path d="M23.5852 149.785C23.5852 149.785 27.0155 144.968 31.9738 144.318C36.9322 143.678 38.7097 145.04 39.6556 148.485C40.6015 151.94 33.5746 164.514 24.843 173.993C21.0697 174.302 19.9367 169.712 19.3857 166.762C19.3857 164.184 21.8805 153.838 23.5748 149.785H23.5852Z" fill="url(#paint24_linear_14112_460)"/>
<path d="M35.6329 144.287C35.6329 144.287 26.3296 157.108 23.3775 164.483C21.7871 168.464 20.8723 171.074 20.8723 171.074C20.8723 171.074 23.2943 177.149 27.2963 172.064C32.9719 164.865 40.5809 154.034 39.1984 148.825C38.0238 144.411 37.2441 143.575 35.6226 144.277L35.6329 144.287Z" fill="url(#paint25_linear_14112_460)"/>
<path d="M123.687 114.942C119.425 116.262 118.926 130.62 122.98 132.446C127.034 134.271 132.72 121.708 130.61 115.994C130.61 115.994 126.816 113.972 123.687 114.942Z" fill="url(#paint26_linear_14112_460)"/>
<path d="M124.072 116.613C124.072 116.613 121.037 119.594 122.336 124.442C123.635 129.289 130.132 132.559 138.25 132.456C146.369 132.353 151.566 126.535 152.699 122.998C152.699 122.998 151.233 120.027 143.281 118.191C137.876 116.943 130.621 115.994 130.621 115.994C130.621 115.994 126.847 115.437 124.072 116.613Z" fill="url(#paint27_linear_14112_460)"/>
<path d="M122.658 125.37C122.658 125.37 129.81 127.68 138.251 126.174C146.691 124.668 144.124 118.686 144.124 118.686C144.124 118.686 139.987 116.623 136.203 115.87C132.419 115.117 124.197 115.87 124.197 115.87C124.197 115.87 119.706 119.728 122.658 125.37Z" fill="url(#paint28_linear_14112_460)"/>
<path style="mix-blend-mode:multiply" opacity="0.5" d="M127.845 130.352C127.845 130.352 128.604 124.38 127.908 121.512C127.908 121.512 130.298 127.732 130.621 131.435L127.845 130.352Z" fill="url(#paint29_linear_14112_460)"/>
<path d="M152.065 151.59L148.728 151.827L151.462 152.353L150.994 156.004C150.994 156.004 150.932 156.004 150.818 156.025C150.776 156.025 150.734 156.025 150.682 156.025C150.059 156.066 148.541 156.159 146.545 156.252C141.743 156.468 133.978 156.664 128.198 155.994C128.198 155.994 131.223 137.634 128.198 123.317L127.897 120.367L127.835 119.81L139.768 118.531C139.768 118.531 145.984 128.794 150.485 139.707C151.42 141.976 152.283 144.277 153 146.504L152.055 151.569L152.065 151.59Z" fill="#FFE141"/>
<path style="mix-blend-mode:multiply" opacity="0.5" d="M150.506 139.717L133.074 142.657L129.508 123.658L144.487 129.062C144.487 129.062 149.809 138.005 150.496 139.717H150.506Z" fill="url(#paint30_linear_14112_460)"/>
<path style="mix-blend-mode:multiply" opacity="0.5" d="M129.914 154.694C129.914 154.694 140.704 155.963 151.005 155.994C151.005 155.994 150.942 155.994 150.828 156.015C150.786 156.015 150.745 156.015 150.693 156.015C150.069 156.056 148.552 156.149 146.556 156.242C141.306 156.499 132.751 156.747 128.209 155.984C128.209 155.984 131.234 137.624 128.209 123.307L127.908 120.357L128.947 119.707L148.822 137.49L150.506 139.697C151.441 141.966 152.304 144.266 153.021 146.494H134.727L133.074 150.042L148.739 151.796L132.731 150.744L129.924 154.674L129.914 154.694Z" fill="url(#paint31_linear_14112_460)"/>
<path d="M127.845 119.821C127.845 119.821 132.564 116.695 142.003 116.076C142.003 116.076 151.129 125.958 156.535 137.5L133.354 138.119C133.354 138.119 131.057 125.958 127.835 119.821H127.845Z" fill="#FFE141"/>
<path style="mix-blend-mode:multiply" opacity="0.5" d="M129.55 118.934C129.55 118.934 133.302 122.977 138.167 124.163C143.042 125.349 145.891 120.708 145.891 120.708L144.207 118.583L129.55 118.944V118.934Z" fill="url(#paint32_linear_14112_460)"/>
<path d="M124.696 116.221C123.48 112.487 140.382 112.538 142.627 113.983C143.625 114.622 145.329 116.829 144.633 118.181C143.937 119.532 138.375 120.357 136.057 120.12C133.729 119.893 125.507 118.665 124.706 116.221H124.696Z" fill="url(#paint33_linear_14112_460)"/>
<path d="M137.637 120.14C137.637 120.14 137.461 116.468 139.384 115.004C141.307 113.539 143.053 114.302 143.053 114.302C143.053 114.302 145.568 116.159 144.633 118.17C143.687 120.182 138.895 120.656 137.637 120.13V120.14Z" fill="url(#paint34_linear_14112_460)"/>
<g style="mix-blend-mode:multiply" opacity="0.5">
<path d="M137.679 123.266C134.144 124.875 135.454 132.652 139.955 134.736C144.456 136.819 147.897 131.94 147.304 127.649C146.712 123.358 140.028 122.183 137.668 123.266H137.679Z" fill="#D9D2EC"/>
</g>
<path d="M140.714 125.514C140.901 125.473 141.109 125.442 141.338 125.442C141.566 125.442 141.816 125.442 142.086 125.463L142.398 126.804C142.263 126.752 142.128 126.711 141.993 126.7C141.858 126.69 141.733 126.68 141.618 126.69C141.494 126.69 141.369 126.711 141.244 126.721C141.088 126.783 140.974 126.896 140.901 127.061C140.828 127.226 140.818 127.402 140.88 127.598C140.932 127.773 141.026 127.918 141.151 128.031C141.275 128.134 141.411 128.227 141.567 128.31C141.722 128.392 141.889 128.464 142.076 128.536C142.263 128.609 142.44 128.701 142.606 128.815C142.772 128.928 142.939 129.062 143.084 129.228C143.23 129.393 143.354 129.609 143.448 129.877C143.531 130.135 143.562 130.383 143.542 130.599C143.521 130.816 143.479 131.012 143.396 131.198C143.313 131.373 143.198 131.528 143.063 131.662C142.928 131.796 142.783 131.909 142.627 131.992L144.009 134.56H142.741L142.086 132.219C142.086 132.219 142.003 132.239 141.92 132.26C141.837 132.281 141.733 132.291 141.618 132.301C141.504 132.312 141.369 132.312 141.234 132.301C141.099 132.291 140.964 132.26 140.839 132.198L140.506 130.888C140.693 130.96 140.87 130.991 141.047 131.012C141.223 131.022 141.369 131.033 141.504 131.022C141.66 131.022 141.806 130.991 141.951 130.95C142.149 130.744 142.211 130.507 142.128 130.238C142.086 130.104 142.003 129.991 141.878 129.898C141.754 129.805 141.608 129.712 141.442 129.619C141.275 129.527 141.088 129.434 140.901 129.341C140.704 129.248 140.517 129.124 140.33 128.99C140.142 128.856 139.976 128.691 139.831 128.506C139.685 128.32 139.56 128.083 139.477 127.814C139.342 127.371 139.332 126.969 139.477 126.608C139.602 126.247 139.831 125.958 140.153 125.752L139.03 122.987L140.07 123.276L140.725 125.504L140.714 125.514Z" fill="white"/>
<path d="M85.8918 4.63721C85.2161 5.44175 93.1162 8.84557 94.1764 8.3711C95.2367 7.89663 88.1682 1.94509 85.8918 4.63721Z" fill="white"/>
<path style="mix-blend-mode:screen" opacity="0.5" d="M45.9237 28.6497C45.1753 33.1056 53.6783 32.6002 67.2851 32.1463C83.6257 31.61 100.049 45.576 109.613 35.5501C111.193 33.8998 95.5381 12.2185 76.6508 12.7033C57.7634 13.188 46.5786 24.7817 45.9341 28.6497H45.9237Z" fill="url(#paint35_linear_14112_460)"/>
<path style="mix-blend-mode:screen" opacity="0.5" d="M54.3437 75.1273C53.4809 78.3558 60.2895 81.5843 77.0147 80.7694C97.243 79.7896 101.536 75.5812 100.549 74.4156C99.956 73.7142 93.8959 77.4997 77.2746 73.8896C66.2977 71.5069 55.248 71.7338 54.3437 75.1273Z" fill="url(#paint36_linear_14112_460)"/>
<path style="mix-blend-mode:screen" opacity="0.2" d="M36.2671 65.0912C36.2671 65.0912 35.5603 60.4084 36.3919 54.1268C37.2235 47.8452 38.9178 43.7915 39.9365 44.3588C40.9552 44.9261 40.7889 51.084 41.3918 57.1386C41.8595 61.8524 42.7743 66.2877 42.7743 66.2877C42.7743 66.2877 38.3981 70.4342 36.2671 65.0912Z" fill="url(#paint37_linear_14112_460)"/>
<path style="mix-blend-mode:multiply" opacity="0.5" d="M37.6598 79.8721C37.6598 79.8721 38.6681 78.789 44.063 75.6431C47.6804 73.5286 51.4849 71.0324 52.0254 70.1144C52.8258 67.9587 36.5268 69.2274 36.5268 69.2274L30.3315 72.1773C30.3315 72.1773 32.795 77.0046 37.6598 79.8617V79.8721Z" fill="url(#paint38_linear_14112_460)"/>
<path d="M25.207 32.1876C25.207 32.1876 29.4168 34.8694 26.6518 41.0891C26.6518 41.0891 7.00566 51.7028 8.14909 63.2758C9.09501 72.9303 36.2358 68.2578 36.2358 68.2578L37.2129 71.4759C37.2129 71.4759 14.1573 75.9525 6.20526 70.5683C6.20526 70.5683 3.50261 64.1938 10.2073 52.7033C16.9223 41.2129 25.207 32.1876 25.207 32.1876Z" fill="url(#paint39_linear_14112_460)"/>
<path d="M32.8055 67.3604C30.3315 70.1351 35.5809 73.1779 39.8948 73.642C44.7387 74.1681 53.3352 72.2599 52.8155 67.4223C52.2958 62.5848 38.6058 60.8519 32.8055 67.3604Z" fill="url(#paint40_linear_14112_460)"/>
<path d="M33.1278 67.8658C32.9823 68.66 50.2689 68.8457 50.6743 65.8132C51.0797 62.7807 34.2713 61.7389 33.1278 67.8658Z" fill="url(#paint41_linear_14112_460)"/>
<path style="mix-blend-mode:screen" opacity="0.72" d="M123.687 12.5073C123.687 12.5073 121.4 9.6914 118.271 10.4444C115.153 11.1973 114.945 20.955 116.806 21.1922C118.677 21.4294 119.467 15.7977 120.891 14.9106C122.325 14.0235 124.82 14.3639 124.82 14.3639L123.677 12.5073H123.687Z" fill="url(#paint42_linear_14112_460)"/>
<path style="mix-blend-mode:screen" opacity="0.72" d="M26.4233 16.6641C26.4233 16.6641 27.6291 15.3129 30.3317 15.7461C33.0344 16.1896 34.5936 21.6976 35.9865 21.1406C37.369 20.5836 36.3607 11.6615 32.6914 9.03125C32.6914 9.03125 27.9721 13.023 26.4233 16.6538V16.6641Z" fill="url(#paint43_linear_14112_460)"/>
<path style="mix-blend-mode:multiply" opacity="0.5" d="M27.7952 156.097C27.7952 156.097 29.0945 162.936 33.2628 163.957L33.9177 147.546C33.9177 147.546 29.0426 153.993 27.7952 156.107V156.097Z" fill="url(#paint44_linear_14112_460)"/>
<path d="M31.87 151.445C31.2463 153.023 32.4521 163.359 33.5851 164.534C34.7182 165.7 37.3377 163.73 38.0653 161.636C38.7929 159.542 42.0673 148.134 37.8574 144.473C37.8574 144.473 34.4583 144.844 31.8596 151.445H31.87Z" fill="url(#paint45_linear_14112_460)"/>
<path d="M33.7617 152.827C33.2939 152.91 32.7846 156.448 33.1692 157.087C33.5538 157.727 34.323 157.644 34.6868 156.85C35.0507 156.045 34.4685 152.704 33.7617 152.827Z" fill="white"/>
<path d="M21.4337 38.4485C21.4337 38.4485 12.0368 49.2686 12.6397 50.0215C13.2322 50.7745 22.0263 39.5419 21.4337 38.4485Z" fill="url(#paint46_linear_14112_460)"/>
<defs>
<radialGradient id="paint0_radial_14112_460" cx="0" cy="0" r="1" gradientUnits="userSpaceOnUse" gradientTransform="translate(88.6692 175.407) scale(36.0636 7.87278)">
<stop stop-color="#BE9DEA"/>
<stop offset="0.39" stop-color="#E0BFF5"/>
<stop offset="1" stop-color="white"/>
</radialGradient>
<linearGradient id="paint1_linear_14112_460" x1="108.833" y1="134.405" x2="113.512" y2="96.8616" gradientUnits="userSpaceOnUse">
<stop stop-color="#CBC1F7"/>
<stop offset="1" stop-color="#E8DCF7"/>
</linearGradient>
<linearGradient id="paint2_linear_14112_460" x1="105.559" y1="135.055" x2="105.559" y2="94.952" gradientUnits="userSpaceOnUse">
<stop stop-color="#9D68C2"/>
<stop offset="1" stop-color="#CCEDFF"/>
</linearGradient>
<linearGradient id="paint3_linear_14112_460" x1="65.8582" y1="188.351" x2="64.1571" y2="152.14" gradientUnits="userSpaceOnUse">
<stop stop-color="#CBC1F7"/>
<stop offset="1" stop-color="#E8DCF7"/>
</linearGradient>
<linearGradient id="paint4_linear_14112_460" x1="65.5129" y1="164.717" x2="63.1012" y2="150.749" gradientUnits="userSpaceOnUse">
<stop stop-color="#BE9DEA"/>
<stop offset="1" stop-color="#9E8CEF"/>
</linearGradient>
<linearGradient id="paint5_linear_14112_460" x1="69.6559" y1="188.166" x2="63.2142" y2="150.855" gradientUnits="userSpaceOnUse">
<stop stop-color="#9D68C2"/>
<stop offset="1" stop-color="#CCEDFF"/>
</linearGradient>
<linearGradient id="paint6_linear_14112_460" x1="80.868" y1="189.989" x2="93.7593" y2="145.002" gradientUnits="userSpaceOnUse">
<stop stop-color="#CBC1F7"/>
<stop offset="1" stop-color="#E8DCF7"/>
</linearGradient>
<linearGradient id="paint7_linear_14112_460" x1="89.5959" y1="162.91" x2="92.2003" y2="146.245" gradientUnits="userSpaceOnUse">
<stop stop-color="#BE9DEA"/>
<stop offset="1" stop-color="#9E8CEF"/>
</linearGradient>
<linearGradient id="paint8_linear_14112_460" x1="85.4358" y1="189.586" x2="92.2279" y2="146.124" gradientUnits="userSpaceOnUse">
<stop stop-color="#9D68C2"/>
<stop offset="1" stop-color="#CCEDFF"/>
</linearGradient>
<linearGradient id="paint9_linear_14112_460" x1="36.288" y1="151.672" x2="44.0173" y2="89.6458" gradientUnits="userSpaceOnUse">
<stop stop-color="#CBC1F7"/>
<stop offset="1" stop-color="#E8DCF7"/>
</linearGradient>
<linearGradient id="paint10_linear_14112_460" x1="31.6932" y1="151.074" x2="31.6932" y2="141.223" gradientUnits="userSpaceOnUse">
<stop stop-color="#BE9DEA"/>
<stop offset="1" stop-color="#9E8CEF"/>
</linearGradient>
<linearGradient id="paint11_linear_14112_460" x1="39.5" y1="150.496" x2="39.5" y2="98.3868" gradientUnits="userSpaceOnUse">
<stop stop-color="#9D68C2"/>
<stop offset="1" stop-color="#CCEDFF"/>
</linearGradient>
<linearGradient id="paint12_linear_14112_460" x1="113.417" y1="40.4083" x2="113.417" y2="4.63721" gradientUnits="userSpaceOnUse">
<stop stop-color="#B9ACF4"/>
<stop offset="1" stop-color="#E1D1F5"/>
</linearGradient>
<linearGradient id="paint13_linear_14112_460" x1="116.037" y1="24.0803" x2="116.037" y2="4.63724" gradientUnits="userSpaceOnUse">
<stop stop-color="#BE9DEA"/>
<stop offset="1" stop-color="#9E8CEF"/>
</linearGradient>
<linearGradient id="paint14_linear_14112_460" x1="38.3253" y1="41.8008" x2="38.3253" y2="6.02972" gradientUnits="userSpaceOnUse">
<stop stop-color="#B9ACF4"/>
<stop offset="1" stop-color="#E1D1F5"/>
</linearGradient>
<linearGradient id="paint15_linear_14112_460" x1="35.716" y1="25.4728" x2="35.716" y2="6.0297" gradientUnits="userSpaceOnUse">
<stop stop-color="#BE9DEA"/>
<stop offset="1" stop-color="#9E8CEF"/>
</linearGradient>
<linearGradient id="paint16_linear_14112_460" x1="72.5239" y1="160.563" x2="82.3315" y2="81.8956" gradientUnits="userSpaceOnUse">
<stop stop-color="#CBC1F7"/>
<stop offset="1" stop-color="#E8DCF7"/>
</linearGradient>
<linearGradient id="paint17_linear_14112_460" x1="76.5779" y1="160.697" x2="76.5779" y2="97.4172" gradientUnits="userSpaceOnUse">
<stop stop-color="#9D68C2"/>
<stop offset="1" stop-color="#CCEDFF"/>
</linearGradient>
<linearGradient id="paint18_linear_14112_460" x1="75.9649" y1="159.418" x2="75.9649" y2="109.578" gradientUnits="userSpaceOnUse">
<stop stop-color="#BE9DEA"/>
<stop offset="1" stop-color="#9E8CEF"/>
</linearGradient>
<linearGradient id="paint19_linear_14112_460" x1="75.4762" y1="96.7468" x2="75.4762" y2="81.3264" gradientUnits="userSpaceOnUse">
<stop stop-color="#8DA4E5"/>
<stop offset="1" stop-color="#755CBB"/>
</linearGradient>
<linearGradient id="paint20_linear_14112_460" x1="77.1808" y1="157.923" x2="77.1808" y2="149.289" gradientUnits="userSpaceOnUse">
<stop stop-color="#D4E2FF"/>
<stop offset="1"/>
</linearGradient>
<linearGradient id="paint21_linear_14112_460" x1="55.6431" y1="123.214" x2="99.3116" y2="123.214" gradientUnits="userSpaceOnUse">
<stop/>
<stop offset="1" stop-color="#D4E2FF"/>
</linearGradient>
<linearGradient id="paint22_linear_14112_460" x1="72.6487" y1="87.639" x2="83.4697" y2="0.74853" gradientUnits="userSpaceOnUse">
<stop stop-color="#CBC1F7"/>
<stop offset="1" stop-color="#E8DCF7"/>
</linearGradient>
<linearGradient id="paint23_linear_14112_460" x1="76.1829" y1="81.6874" x2="76.1829" y2="9.87704" gradientUnits="userSpaceOnUse">
<stop stop-color="#8A42FF"/>
<stop offset="1" stop-color="#1A1F77"/>
</linearGradient>
<linearGradient id="paint24_linear_14112_460" x1="27.4833" y1="174.426" x2="31.3121" y2="143.743" gradientUnits="userSpaceOnUse">
<stop stop-color="#CBC1F7"/>
<stop offset="1" stop-color="#E8DCF7"/>
</linearGradient>
<linearGradient id="paint25_linear_14112_460" x1="31.4542" y1="173.384" x2="28.5675" y2="144.87" gradientUnits="userSpaceOnUse">
<stop stop-color="#BE9DEA"/>
<stop offset="1" stop-color="#9E8CEF"/>
</linearGradient>
<linearGradient id="paint26_linear_14112_460" x1="126.712" y1="132.353" x2="124.931" y2="114.702" gradientUnits="userSpaceOnUse">
<stop stop-color="#BE9DEA"/>
<stop offset="1" stop-color="#9E8CEF"/>
</linearGradient>
<linearGradient id="paint27_linear_14112_460" x1="136.067" y1="132.446" x2="138.002" y2="116.918" gradientUnits="userSpaceOnUse">
<stop stop-color="#CBC1F7"/>
<stop offset="1" stop-color="#E8DCF7"/>
</linearGradient>
<linearGradient id="paint28_linear_14112_460" x1="133.646" y1="126.731" x2="132.458" y2="115.033" gradientUnits="userSpaceOnUse">
<stop stop-color="#BE9DEA"/>
<stop offset="1" stop-color="#9E8CEF"/>
</linearGradient>
<linearGradient id="paint29_linear_14112_460" x1="129.228" y1="131.445" x2="129.228" y2="121.523" gradientUnits="userSpaceOnUse">
<stop stop-color="#8DA4E5"/>
<stop offset="1" stop-color="#755CBB"/>
</linearGradient>
<linearGradient id="paint30_linear_14112_460" x1="140.007" y1="142.657" x2="140.007" y2="123.658" gradientUnits="userSpaceOnUse">
<stop stop-color="#755CBB"/>
<stop offset="1" stop-color="#CCEDFF"/>
</linearGradient>
<linearGradient id="paint31_linear_14112_460" x1="140.454" y1="156.51" x2="140.454" y2="119.728" gradientUnits="userSpaceOnUse">
<stop stop-color="#755CBB"/>
<stop offset="1" stop-color="#CCEDFF"/>
</linearGradient>
<linearGradient id="paint32_linear_14112_460" x1="129.55" y1="121.461" x2="145.891" y2="121.461" gradientUnits="userSpaceOnUse">
<stop stop-color="#755CBB"/>
<stop offset="1" stop-color="#CCEDFF"/>
</linearGradient>
<linearGradient id="paint33_linear_14112_460" x1="132.661" y1="120.848" x2="137.299" y2="111.353" gradientUnits="userSpaceOnUse">
<stop stop-color="#CBC1F7"/>
<stop offset="1" stop-color="#E8DCF7"/>
</linearGradient>
<linearGradient id="paint34_linear_14112_460" x1="141.4" y1="120.151" x2="140.796" y2="114.198" gradientUnits="userSpaceOnUse">
<stop stop-color="#CBC1F7"/>
<stop offset="1" stop-color="#D4BEF1"/>
</linearGradient>
<linearGradient id="paint35_linear_14112_460" x1="45.8718" y1="25.9369" x2="109.706" y2="25.9369" gradientUnits="userSpaceOnUse">
<stop/>
<stop offset="1" stop-color="#6A9BFF"/>
</linearGradient>
<linearGradient id="paint36_linear_14112_460" x1="54.2709" y1="76.592" x2="100.684" y2="76.592" gradientUnits="userSpaceOnUse">
<stop/>
<stop offset="1" stop-color="#6A9BFF"/>
</linearGradient>
<linearGradient id="paint37_linear_14112_460" x1="39.0116" y1="67.7979" x2="40.605" y2="44.3648" gradientUnits="userSpaceOnUse">
<stop/>
<stop offset="1" stop-color="#00E3FF"/>
</linearGradient>
<linearGradient id="paint38_linear_14112_460" x1="41.194" y1="79.8721" x2="41.194" y2="68.856" gradientUnits="userSpaceOnUse">
<stop stop-color="#8DA4E5"/>
<stop offset="1" stop-color="#755CBB"/>
</linearGradient>
<linearGradient id="paint39_linear_14112_460" x1="20.7788" y1="73.7864" x2="25.9487" y2="32.2808" gradientUnits="userSpaceOnUse">
<stop stop-color="#BE9DEA"/>
<stop offset="1" stop-color="#9E8CEF"/>
</linearGradient>
<linearGradient id="paint40_linear_14112_460" x1="41.1625" y1="74.0298" x2="43.8249" y2="62.6352" gradientUnits="userSpaceOnUse">
<stop stop-color="#DD1A8F"/>
<stop offset="1" stop-color="#FE117E"/>
</linearGradient>
<linearGradient id="paint41_linear_14112_460" x1="41.901" y1="68.3712" x2="41.901" y2="63.3996" gradientUnits="userSpaceOnUse">
<stop stop-color="#D93DE3"/>
<stop offset="1" stop-color="#FF6DBA"/>
</linearGradient>
<linearGradient id="paint42_linear_14112_460" x1="115.621" y1="15.7461" x2="124.841" y2="15.7461" gradientUnits="userSpaceOnUse">
<stop/>
<stop offset="1" stop-color="#D4E2FF"/>
</linearGradient>
<linearGradient id="paint43_linear_14112_460" x1="26.4233" y1="15.1169" x2="36.579" y2="15.1169" gradientUnits="userSpaceOnUse">
<stop stop-color="#D4E2FF"/>
<stop offset="1"/>
</linearGradient>
<linearGradient id="paint44_linear_14112_460" x1="32.109" y1="164.07" x2="30.4814" y2="147.884" gradientUnits="userSpaceOnUse">
<stop stop-color="#8DA4E5"/>
<stop offset="1" stop-color="#755CBB"/>
</linearGradient>
<linearGradient id="paint45_linear_14112_460" x1="34.2608" y1="164.865" x2="36.8202" y2="144.334" gradientUnits="userSpaceOnUse">
<stop stop-color="#CBC1F7"/>
<stop offset="1" stop-color="#E8DCF7"/>
</linearGradient>
<linearGradient id="paint46_linear_14112_460" x1="17.0367" y1="50.0628" x2="17.0367" y2="38.4485" gradientUnits="userSpaceOnUse">
<stop stop-color="#CBC1F7"/>
<stop offset="1" stop-color="#E8DCF7"/>
</linearGradient>
</defs>
</svg>
