<svg width="692" height="692" viewBox="0 0 692 692" fill="none" xmlns="http://www.w3.org/2000/svg">
<circle cx="246.5" cy="432.5" r="146" fill="#060B1A" stroke="#16203B"/>
<circle cx="246" cy="432" r="124.5" fill="#0E1322" stroke="#16203B"/>
<circle cx="246" cy="432" r="96.5" fill="#111624" stroke="#16203B"/>
<circle cx="246.5" cy="432.5" r="73" fill="#161B28" stroke="#16203B"/>
<path d="M258.842 434.624C260.575 423.354 254.945 420.345 248.218 420.686C245.497 420.824 243.839 417.734 246.448 416.949C262.194 412.209 276.214 430.561 282.904 443.966C283.525 445.21 282.932 446.699 281.615 447.146C271.673 450.524 256.19 451.858 258.842 434.624Z" fill="url(#paint0_linear_14108_457)"/>
<path d="M235.158 428.61C233.425 439.88 239.055 442.889 245.782 442.548C248.503 442.41 250.161 445.5 247.552 446.285C231.806 451.025 217.786 432.673 211.096 419.268C210.475 418.024 211.068 416.535 212.385 416.088C222.327 412.71 237.81 411.376 235.158 428.61Z" fill="url(#paint1_linear_14108_457)"/>
<g style="mix-blend-mode:plus-lighter" opacity="0.3" filter="url(#filter0_f_14108_457)">
<circle cx="346" cy="346" r="146" fill="url(#paint2_linear_14108_457)"/>
</g>
<defs>
<filter id="filter0_f_14108_457" x="0" y="0" width="692" height="692" filterUnits="userSpaceOnUse" color-interpolation-filters="sRGB">
<feFlood flood-opacity="0" result="BackgroundImageFix"/>
<feBlend mode="normal" in="SourceGraphic" in2="BackgroundImageFix" result="shape"/>
<feGaussianBlur stdDeviation="100" result="effect1_foregroundBlur_14108_457"/>
</filter>
<linearGradient id="paint0_linear_14108_457" x1="259.645" y1="416.186" x2="259.645" y2="449.234" gradientUnits="userSpaceOnUse">
<stop stop-color="#8B3AFF"/>
<stop offset="1" stop-color="#D020FF"/>
</linearGradient>
<linearGradient id="paint1_linear_14108_457" x1="234.355" y1="447.048" x2="234.355" y2="414" gradientUnits="userSpaceOnUse">
<stop stop-color="#8B3AFF"/>
<stop offset="1" stop-color="#D020FF"/>
</linearGradient>
<linearGradient id="paint2_linear_14108_457" x1="346" y1="200" x2="346" y2="492" gradientUnits="userSpaceOnUse">
<stop stop-color="#8B3AFF"/>
<stop offset="1" stop-color="#D020FF"/>
</linearGradient>
</defs>
</svg>
